<svg width="102" height="17" viewBox="0 0 102 17" fill="none" xmlns="http://www.w3.org/2000/svg">
<g clip-path="url(#clip0_40_108)">
<path d="M93.5723 13.4815C91.3843 13.4815 89.44 11.8981 88.9392 9.71189H101.93C101.93 9.71189 102 8.91977 102 8.63955C102 3.9995 98.2202 0.223583 93.5747 0.223583C88.9291 0.223583 85.1494 3.99872 85.1494 8.63955C85.1494 13.2804 88.9079 16.9678 93.5747 16.9678C98.2414 16.9678 100.966 13.534 101.646 11.048H97.6866C97.6866 11.048 96.4272 13.4815 93.5723 13.4815ZM93.5747 3.70832C95.6726 3.70832 97.4939 5.0922 98.1176 7.1547H89.0317C89.6532 5.0922 91.4753 3.70832 93.5747 3.70832Z" fill="#9391F7"/>
<path d="M43.9996 16.9678C39.354 16.9678 35.7099 13.2319 35.7099 8.63955C35.7099 4.04725 39.4896 0.223583 44.1351 0.223583C48.7809 0.223583 52.5605 4.14744 52.5605 8.59493C52.5605 10.4899 52.5605 16.5507 52.5605 16.5507H49.2894V13.8956L49.0512 13.833C48.4752 15.2435 46.3882 16.9678 43.9989 16.9678H43.9996ZM44.1351 3.70832C41.5114 3.70832 39.3759 5.90859 39.3759 8.61372C39.3759 11.3188 41.5107 13.4823 44.1351 13.4823C46.7597 13.4823 48.8945 11.2985 48.8945 8.61372C48.8945 5.92894 46.7597 3.70832 44.1351 3.70832Z" fill="#9391F7"/>
<path d="M61.8947 16.9678C57.2489 16.9678 53.6049 13.2319 53.6049 8.63955C53.6049 4.04725 57.3846 0.223583 62.0302 0.223583C66.6758 0.223583 70.4554 4.14744 70.4554 8.59493C70.4554 10.4899 70.4554 16.5507 70.4554 16.5507H67.1844V13.8956L66.9462 13.833C66.3702 15.2435 64.2833 16.9678 61.8938 16.9678H61.8947ZM62.0302 3.70832C59.4065 3.70832 57.271 5.90859 57.271 8.61372C57.271 11.3188 59.4056 13.4823 62.0302 13.4823C64.6548 13.4823 66.7894 11.2985 66.7894 8.61372C66.7894 5.92894 64.6548 3.70832 62.0302 3.70832Z" fill="#9391F7"/>
<path d="M75.9467 16.5488L69.2329 0.642086H72.906L77.8267 12.3596L82.7482 0.642086H86.4205L79.7076 16.5488H75.9467Z" fill="#9391F7"/>
<path d="M11.9439 16.9429C13.7707 16.9429 15.2518 15.4636 15.2518 13.6389C15.2518 11.8142 13.7707 10.335 11.9439 10.335C10.117 10.335 8.636 11.8142 8.636 13.6389C8.636 15.4636 10.117 16.9429 11.9439 16.9429Z" fill="#9391F7"/>
<path d="M20.5897 16.9429C22.4166 16.9429 23.8976 15.4636 23.8976 13.6389C23.8976 11.8142 22.4166 10.335 20.5897 10.335C18.7629 10.335 17.2818 11.8142 17.2818 13.6389C17.2818 15.4636 18.7629 16.9429 20.5897 16.9429Z" fill="#9391F7"/>
<path d="M16.2612 0C7.27956 0 -0.00235046 7.41172 5.69127e-07 16.5518H4.15425C4.15425 9.702 9.53183 4.14849 16.2612 4.14849C22.9907 4.14849 28.3682 9.702 28.3682 16.5518H32.5225C32.524 7.41172 25.2421 0 16.2612 0Z" fill="#9391F7"/>
</g>
<defs>
<clipPath id="clip0_40_108">
<rect width="102" height="17" fill="white"/>
</clipPath>
</defs>
</svg>
