<svg width="102" height="17" viewBox="0 0 102 17" fill="none" xmlns="http://www.w3.org/2000/svg">
<g opacity="0.5" clip-path="url(#clip0_41_285)">
<path d="M93.5723 13.4815C91.3843 13.4815 89.4401 11.8981 88.9392 9.71194H101.93C101.93 9.71194 102 8.91982 102 8.6396C102 3.99955 98.2203 0.223633 93.5747 0.223633C88.9291 0.223633 85.1494 3.99877 85.1494 8.6396C85.1494 13.2805 88.9079 16.9679 93.5747 16.9679C98.2414 16.9679 100.966 13.534 101.647 11.0481H97.6866C97.6866 11.0481 96.4272 13.4815 93.5723 13.4815ZM93.5747 3.70837C95.6726 3.70837 97.4939 5.09225 98.1176 7.15475H89.0317C89.6532 5.09225 91.4753 3.70837 93.5747 3.70837Z" fill="white"/>
<path d="M43.9996 16.9679C39.354 16.9679 35.7099 13.2319 35.7099 8.6396C35.7099 4.0473 39.4895 0.223633 44.1351 0.223633C48.7809 0.223633 52.5605 4.14749 52.5605 8.59498C52.5605 10.49 52.5605 16.5507 52.5605 16.5507H49.2894V13.8957L49.0512 13.833C48.4752 15.2435 46.3882 16.9679 43.9989 16.9679H43.9996ZM44.1351 3.70837C41.5114 3.70837 39.3759 5.90864 39.3759 8.61377C39.3759 11.3189 41.5107 13.4824 44.1351 13.4824C46.7597 13.4824 48.8945 11.2985 48.8945 8.61377C48.8945 5.92899 46.7597 3.70837 44.1351 3.70837Z" fill="white"/>
<path d="M61.8947 16.9679C57.2489 16.9679 53.6049 13.2319 53.6049 8.6396C53.6049 4.0473 57.3846 0.223633 62.0302 0.223633C66.6758 0.223633 70.4554 4.14749 70.4554 8.59498C70.4554 10.49 70.4554 16.5507 70.4554 16.5507H67.1844V13.8957L66.9462 13.833C66.3702 15.2435 64.2833 16.9679 61.8938 16.9679H61.8947ZM62.0302 3.70837C59.4065 3.70837 57.271 5.90864 57.271 8.61377C57.271 11.3189 59.4056 13.4824 62.0302 13.4824C64.6548 13.4824 66.7894 11.2985 66.7894 8.61377C66.7894 5.92899 64.6548 3.70837 62.0302 3.70837Z" fill="white"/>
<path d="M75.9467 16.5488L69.2329 0.64209H72.906L77.8267 12.3596L82.7482 0.64209H86.4205L79.7076 16.5488H75.9467Z" fill="white"/>
<path d="M11.9439 16.9428C13.7707 16.9428 15.2518 15.4636 15.2518 13.6388C15.2518 11.8142 13.7707 10.335 11.9439 10.335C10.117 10.335 8.63599 11.8142 8.63599 13.6388C8.63599 15.4636 10.117 16.9428 11.9439 16.9428Z" fill="white"/>
<path d="M20.5897 16.9428C22.4166 16.9428 23.8976 15.4636 23.8976 13.6388C23.8976 11.8142 22.4166 10.335 20.5897 10.335C18.7629 10.335 17.2818 11.8142 17.2818 13.6388C17.2818 15.4636 18.7629 16.9428 20.5897 16.9428Z" fill="white"/>
<path d="M16.2612 0C7.27956 0 -0.00235046 7.41172 5.69127e-07 16.5518H4.15425C4.15425 9.702 9.53183 4.14849 16.2612 4.14849C22.9907 4.14849 28.3682 9.702 28.3682 16.5518H32.5225C32.524 7.41172 25.2421 0 16.2612 0Z" fill="white"/>
</g>
<defs>
<clipPath id="clip0_41_285">
<rect width="102" height="17" fill="white"/>
</clipPath>
</defs>
</svg>
