<svg width="26" height="26" viewBox="0 0 22 22" fill="none" xmlns="http://www.w3.org/2000/svg">
<path d="M9.75 6.75H11.75C14.5784 6.75 15.9926 6.75 16.8713 7.62868C17.75 8.50736 17.75 9.92157 17.75 12.75C17.75 15.5784 17.75 16.9926 16.8713 17.8713C15.9926 18.75 14.5784 18.75 11.75 18.75H10.75C10.75 18.75 10.25 20.75 6.75 20.75C6.75 20.75 7.75 19.7413 7.75 18.7327C6.19655 18.6859 5.26998 18.5126 4.62868 17.8713C3.75 16.9926 3.75 15.5784 3.75 12.75C3.75 9.92157 3.75 8.50736 4.62868 7.62868C5.50736 6.75 6.92157 6.75 9.75 6.75Z" stroke="#141B34" stroke-width="2.1" stroke-linejoin="round"/>
<path d="M17.75 10.25H18.25C19.1846 10.25 19.6519 10.25 20 10.451C20.228 10.5826 20.4174 10.772 20.549 11C20.75 11.3481 20.75 11.8154 20.75 12.75C20.75 13.6846 20.75 14.1519 20.549 14.5C20.4174 14.728 20.228 14.9174 20 15.049C19.6519 15.25 19.1846 15.25 18.25 15.25H17.75" stroke="#141B34" stroke-width="2.1" stroke-linejoin="round"/>
<path d="M3.75 10.25H3.25C2.31539 10.25 1.84808 10.25 1.5 10.451C1.27197 10.5826 1.08262 10.772 0.950963 11C0.750002 11.3481 0.750002 11.8154 0.750002 12.75C0.750002 13.6846 0.750002 14.1519 0.950963 14.5C1.08262 14.728 1.27197 14.9174 1.5 15.049C1.84808 15.25 2.31539 15.25 3.25 15.25H3.75" stroke="#141B34" stroke-width="2.1" stroke-linejoin="round"/>
<path d="M12.25 2.25C12.25 3.07843 11.5784 3.75 10.75 3.75C9.92157 3.75 9.25 3.07843 9.25 2.25C9.25 1.42157 9.92157 0.75 10.75 0.75C11.5784 0.75 12.25 1.42157 12.25 2.25Z" stroke="#141B34" stroke-width="2.1"/>
<path d="M10.75 3.75V6.75" stroke="#141B34" stroke-width="2.1" stroke-linecap="round" stroke-linejoin="round"/>
<path d="M7.75 10.75V11.75M13.75 10.75V11.75" stroke="#141B34" stroke-width="2.1" stroke-linecap="round" stroke-linejoin="round"/>
<path d="M8.75 15.25C8.75 15.25 9.41667 15.75 10.75 15.75C12.0833 15.75 12.75 15.25 12.75 15.25" stroke="#141B34" stroke-width="2.1" stroke-linecap="round"/>
</svg>
