<svg width="17" height="20" viewBox="0 0 17 20" fill="none" xmlns="http://www.w3.org/2000/svg">
<path d="M0.688477 5.82101V13.3258C0.688477 13.7858 0.956075 14.2458 1.34093 14.4744L7.85048 18.2267C8.27143 18.4553 8.77054 18.4553 9.19148 18.2267L15.701 14.4744C16.122 14.2458 16.3535 13.7858 16.3535 13.3258V5.82101C16.3535 5.36098 16.0859 4.90095 15.701 4.67244L9.18847 0.920056C8.76753 0.691545 8.26842 0.691545 7.84748 0.920056L1.33793 4.67244C0.916987 4.90095 0.688477 5.36098 0.688477 5.82101Z" fill="#213147"/>
<path d="M9.95523 11.0287L9.03517 13.5573C8.99609 13.6325 8.99609 13.7107 9.03517 13.7858L10.6438 18.1516L12.4809 17.0782L10.2589 11.0287C10.2228 10.8753 10.0304 10.8753 9.95523 11.0287Z" fill="#12AAFF"/>
<path d="M11.7924 6.74108C11.7533 6.58773 11.5639 6.58773 11.4857 6.74108L10.5657 9.26973C10.5266 9.34489 10.5266 9.42307 10.5657 9.49824L13.1695 16.6602L15.0066 15.5868L11.7924 6.74108Z" fill="#12AAFF"/>
<path d="M8.5 1.18765C8.53909 1.18765 8.57517 1.18765 8.61425 1.22674L15.659 5.28581C15.7342 5.3249 15.7733 5.40007 15.7733 5.51432V13.6325C15.7733 13.7076 15.7342 13.8249 15.659 13.861L8.61425 17.9201C8.57517 17.9591 8.53909 17.9591 8.5 17.9591C8.46091 17.9591 8.42483 17.9591 8.38574 17.9201L1.341 13.861C1.26583 13.8219 1.22674 13.7467 1.22674 13.6325V5.51432C1.22674 5.43916 1.26583 5.32189 1.341 5.28581L8.38574 1.22674C8.42183 1.18765 8.46091 1.18765 8.5 1.18765ZM8.5 0C8.2324 0 8.00088 0.075168 7.77237 0.19243L0.727626 4.2515C0.267598 4.5191 0 4.97913 0 5.51432V13.6325C0 14.1316 0.267598 14.6277 0.727626 14.8953L7.77237 18.9544C8.00088 19.0686 8.2324 19.1468 8.5 19.1468C8.7676 19.1468 8.99912 19.0716 9.22763 18.9544L16.2724 14.8953C16.7324 14.6277 17 14.1677 17 13.6325V5.51432C17 5.01521 16.7324 4.5191 16.2724 4.2515L9.26371 0.19243C9.0352 0.0781747 8.80368 0 8.53608 0H8.5Z" fill="#9DCCED"/>
<path d="M3.8667 16.6572L4.51615 14.8953L5.81806 15.9687L4.59433 17.1173L3.8667 16.6572Z" fill="#213147"/>
<path d="M7.92574 4.94003H6.12472C6.01046 4.94003 5.85712 5.0152 5.81803 5.13246L1.99048 15.6229L3.82758 16.6963L8.04 5.16854C8.07909 5.05429 8.00091 4.94003 7.88666 4.94003H7.92574Z" fill="white"/>
<path d="M11.0256 4.94004H9.22461C9.11036 4.94004 8.95701 5.01521 8.91793 5.13247L4.55518 17.0782L6.39228 18.1516L11.1399 5.13247C11.179 5.01822 11.1008 4.90396 10.9866 4.90396L11.0256 4.94004Z" fill="white"/>
</svg>
