<svg width="30" height="30" viewBox="0 0 30 30" fill="none" xmlns="http://www.w3.org/2000/svg">
<circle cx="15" cy="15" r="15" fill="#FF5D00"/>
<path d="M13.6433 16.8006C14.4945 17.6621 15.8891 17.6645 16.7583 16.8058C17.6275 15.9471 17.6421 14.5525 16.7909 13.691C15.9398 12.8294 14.5451 12.8271 13.676 13.6858C12.8068 14.5445 12.7922 15.939 13.6433 16.8006Z" fill="#EEF3FA"/>
<path d="M8.6524 16.1006C8.51916 15.966 8.41622 15.8044 8.35037 15.6265C8.28452 15.4486 8.25726 15.2585 8.27037 15.0686C8.39297 13.3041 9.15837 11.6403 10.4215 10.3924C11.6846 9.14456 13.3576 8.39943 15.1234 8.29826C15.3018 8.28503 15.4806 8.30742 15.6496 8.36414C15.8186 8.42086 15.9744 8.51077 16.1077 8.62861C16.241 8.74646 16.3493 8.88989 16.4263 9.05052C16.5032 9.21116 16.5472 9.38579 16.5558 9.56423C16.5643 9.74267 16.5373 9.92134 16.4761 10.0898C16.415 10.2583 16.321 10.4132 16.1996 10.5455C16.0783 10.6778 15.932 10.7848 15.7694 10.8604C15.6067 10.9359 15.4309 10.9784 15.2523 10.9855C14.1452 11.0491 13.0963 11.5163 12.3043 12.2987C11.5124 13.0811 11.0324 14.1242 10.9554 15.2305C10.9373 15.4894 10.8449 15.7382 10.6893 15.947C10.5336 16.1558 10.3214 16.3157 10.078 16.4075C9.83462 16.4993 9.57052 16.5191 9.31747 16.4645C9.06441 16.4099 8.83402 16.2841 8.6524 16.1006Z" fill="#EEF3FA"/>
<path d="M14.2827 21.7996C14.1014 21.6158 13.9775 21.383 13.926 21.1293C13.8744 20.8756 13.8974 20.6118 13.9922 20.3695C14.087 20.1273 14.2494 19.917 14.4601 19.7639C14.6708 19.6108 14.9207 19.5214 15.1798 19.5065C16.2869 19.4429 17.3358 18.9756 18.1277 18.1933C18.9197 17.4109 19.3996 16.3677 19.4767 15.2615C19.4859 15.0829 19.5305 14.9076 19.608 14.7459C19.6855 14.5842 19.7944 14.4392 19.9281 14.3195C20.0619 14.1998 20.2179 14.1077 20.3871 14.0486C20.5563 13.9895 20.7353 13.9646 20.9136 13.9753C21.0919 13.986 21.266 14.0322 21.4257 14.1111C21.5854 14.1899 21.7275 14.3 21.8437 14.4347C21.96 14.5695 22.048 14.7263 22.1026 14.8959C22.1573 15.0656 22.1775 15.2448 22.1621 15.423C22.0395 17.1874 21.2741 18.8513 20.011 20.0991C18.7479 21.347 17.0749 22.0921 15.3091 22.1933C15.1193 22.2041 14.9297 22.1746 14.7528 22.1067C14.5758 22.0389 14.4156 21.9342 14.2827 21.7996Z" fill="#EEF3FA"/>
<path d="M4.24388 16.0932C4.11456 15.9626 4.01385 15.8064 3.94805 15.6345C3.88226 15.4626 3.85279 15.2786 3.86151 15.0941C3.99174 12.1486 5.23573 9.35268 7.34178 7.27205C9.44782 5.19142 12.2587 3.98147 15.2055 3.88701C15.3829 3.88042 15.5594 3.90893 15.7251 3.97091C15.8908 4.03289 16.0423 4.1271 16.1709 4.24815C16.2995 4.36919 16.4027 4.51467 16.4745 4.67622C16.5463 4.83777 16.5854 5.01221 16.5894 5.1895C16.5935 5.3668 16.5624 5.54345 16.4981 5.70931C16.4337 5.87516 16.3373 6.02695 16.2144 6.15595C16.0915 6.28494 15.9445 6.38859 15.7819 6.46095C15.6193 6.5333 15.4443 6.57293 15.2669 6.57755C13.0027 6.65031 10.8431 7.58005 9.22495 9.17867C7.60681 10.7773 6.65092 12.9254 6.55067 15.1886C6.53872 15.4504 6.45063 15.7037 6.29721 15.9175C6.14379 16.1312 5.9317 16.2961 5.68697 16.3919C5.44223 16.4876 5.17549 16.5101 4.91947 16.4566C4.66344 16.4031 4.42925 16.2759 4.24563 16.0906L4.24388 16.0932Z" fill="#EEF3FA"/>
<path d="M14.2365 26.2079C14.0534 26.0221 13.9291 25.7863 13.8787 25.5297C13.8283 25.273 13.8541 25.0066 13.9528 24.763C14.0515 24.5195 14.219 24.3094 14.4346 24.1586C14.6501 24.0078 14.9045 23.9228 15.1665 23.914C17.4307 23.8412 19.5903 22.9115 21.2084 21.3129C22.8266 19.7143 23.7824 17.5661 23.8827 15.303C23.8895 15.1257 23.9312 14.9511 24.0055 14.7894C24.0799 14.6277 24.1853 14.482 24.3158 14.3607C24.4462 14.2393 24.5992 14.1448 24.7658 14.0824C24.9324 14.0201 25.1095 13.9912 25.2867 13.9974C25.4639 14.0036 25.6379 14.0447 25.7985 14.1185C25.9592 14.1923 26.1034 14.2973 26.2229 14.4273C26.3424 14.5574 26.4347 14.71 26.4947 14.8764C26.5547 15.0428 26.581 15.2198 26.5723 15.397C26.4421 18.3425 25.1981 21.1384 23.092 23.2191C20.986 25.2997 18.1751 26.5096 15.2283 26.6041C15.044 26.61 14.8608 26.5779 14.6902 26.5097C14.5195 26.4415 14.3651 26.3388 14.2365 26.2079Z" fill="#EEF3FA"/>
</svg>
