<svg width="281" height="30" viewBox="0 0 281 30" fill="none" xmlns="http://www.w3.org/2000/svg">
<g opacity="0.8">
<path d="M276.002 0.824458V8.86491L276.291 15.3934C275.048 12.799 273.665 10.2796 272.143 7.83531C270.62 5.36963 269.012 3.03286 267.318 0.824458H263.78V22.6942H267.479V14.3324L267.222 6.80621C268.873 9.229 270.427 11.8127 271.885 14.5571C273.179 16.9398 274.433 19.3146 275.646 21.6808L276.163 22.6942H279.701V0.824458H276.002ZM280.203 23.1968H275.854L275.715 22.922C274.516 20.5617 273.276 18.1932 271.995 15.8164L271.444 14.7971L271.441 14.7932C270.283 12.6129 269.064 10.5356 267.784 8.56113L267.981 14.3152L267.981 14.3235V23.1968H263.278V0.32193H267.566L267.717 0.51823C269.421 2.74016 271.038 5.09086 272.569 7.56982C273.682 9.35638 274.72 11.1833 275.684 13.0495L275.499 8.8757V0.32193H280.203V23.1968Z" fill="white"/>
<path d="M258.678 9.4435C258.678 6.74331 258.024 4.60672 256.716 3.03333L256.587 2.88267C255.237 1.34566 253.284 0.553044 250.726 0.504982L250.477 0.502528C247.775 0.502528 245.727 1.29602 244.334 2.88267C242.962 4.46929 242.276 6.65624 242.275 9.4435V14.0428L242.277 14.3024C242.319 16.9669 243.004 19.0782 244.334 20.636C245.684 22.173 247.648 22.9657 250.225 23.0137L250.477 23.0157C253.073 23.0156 255.066 22.2712 256.455 20.7823L256.587 20.636C257.937 19.0782 258.634 16.9669 258.676 14.3024L258.678 14.0428V9.4435ZM254.219 9.4435C254.219 7.84349 253.925 6.69986 253.404 5.94298L253.297 5.79674L253.293 5.79232C252.729 5.05125 251.827 4.6396 250.477 4.63955C249.126 4.63955 248.225 5.05121 247.66 5.79232L247.657 5.79674C247.069 6.5494 246.734 7.73694 246.734 9.4435V14.0428L246.738 14.3564C246.774 15.7939 247.063 16.8495 247.553 17.5757L247.66 17.7264C248.225 18.4675 249.126 18.8792 250.477 18.8792V19.3817L250.208 19.3763C248.974 19.3271 248.036 18.9333 247.394 18.1946L247.261 18.0307C246.617 17.1864 246.276 15.9653 246.235 14.3672L246.231 14.0428V9.4435C246.231 7.79533 246.533 6.53349 247.136 5.65786L247.261 5.48757C247.947 4.5871 249.019 4.13702 250.477 4.13702L250.745 4.14193C252.067 4.19466 253.05 4.64335 253.693 5.48757C254.379 6.36664 254.722 7.68537 254.722 9.4435V14.0428L254.718 14.3672C254.678 15.9653 254.336 17.1864 253.693 18.0307C253.007 18.9311 251.935 19.3816 250.477 19.3817V18.8792C251.827 18.8791 252.729 18.4675 253.293 17.7264C253.885 16.95 254.219 15.7481 254.219 14.0428V9.4435ZM259.18 14.0428L259.178 14.3103C259.135 17.0577 258.415 19.2941 256.967 20.9648L256.965 20.9673C255.452 22.6904 253.26 23.5182 250.477 23.5182C247.761 23.5182 245.609 22.7423 244.1 21.1263L243.956 20.9673L243.954 20.9648L243.951 20.9619C242.48 19.2373 241.773 16.911 241.773 14.0428V9.4435C241.773 6.57565 242.48 4.2582 243.954 2.55386L243.956 2.55092C245.471 0.826966 247.674 0 250.477 0C253.173 4.51086e-05 255.314 0.776783 256.821 2.39192L256.965 2.55092C258.462 4.25524 259.18 6.57388 259.18 9.4435V14.0428Z" fill="white"/>
<path d="M233.314 0.824458V22.6942H237.174V0.824458H233.314ZM237.677 23.1968H232.812V0.32193H237.677V23.1968Z" fill="white"/>
<path d="M213.781 0.824458V4.52275H219.891V22.6942H223.751V4.52275H229.861V0.824458H213.781ZM230.364 5.02528H224.253V23.1968H219.389V5.02528H213.278V0.32193H230.364V5.02528Z" fill="white"/>
<path d="M207.866 0.32193L215.536 23.1968H210.448L209.097 18.9194H202.34L200.99 23.1968H196.096L203.733 0.32193H207.866ZM204.095 0.824458L196.794 22.6942H200.622L201.972 18.4169H209.466L210.816 22.6942H214.837L207.504 0.824458H204.095ZM207.343 11.727L208.34 14.8791H203.066L204.063 11.727L205.735 6.19523L207.343 11.727ZM204.544 11.8727L204.542 11.8786L203.752 14.3765H207.654L206.864 11.8786L206.862 11.8732L206.861 11.8673L205.725 7.96291L204.544 11.8727Z" fill="white"/>
<path d="M178.759 0.32193H186.659V0.824458H179.261V22.6942H186.659L186.902 22.6923C189.318 22.6495 191.188 21.9661 192.51 20.6419L192.641 20.5075C193.97 19.095 194.656 17.0283 194.697 14.3078L194.699 14.0428V9.4435C194.699 6.70176 194.055 4.60409 192.767 3.15012L192.641 3.01124C191.311 1.59889 189.398 0.870588 186.902 0.826421L186.659 0.824458V0.32193C189.368 0.321961 191.513 1.07946 193.007 2.66673C194.497 4.25048 195.202 6.53834 195.202 9.4435V14.0428L195.199 14.3152C195.157 17.1111 194.451 19.3166 193.007 20.8515C191.513 22.4388 189.368 23.1967 186.659 23.1968H178.759V0.32193ZM190.241 9.4435C190.241 7.80969 189.95 6.73277 189.469 6.10198L189.37 5.98175L189.367 5.97881L189.365 5.97537C188.89 5.42195 188.065 5.0714 186.764 5.0297L186.498 5.02528H183.623V18.4929H186.498V18.9955H183.121V4.52275H186.498C188.02 4.52275 189.103 4.8981 189.746 5.64853C190.411 6.39896 190.743 7.66393 190.743 9.4435V14.0428L190.739 14.3741C190.7 16.0011 190.369 17.1666 189.746 17.8702C189.103 18.6205 188.02 18.9955 186.498 18.9955V18.4929C187.953 18.4929 188.859 18.1332 189.365 17.5428L189.367 17.5399L189.37 17.537C189.91 16.9278 190.241 15.8089 190.241 14.0428V9.4435Z" fill="white"/>
<path d="M169.368 0.824458V22.6942H173.227V0.824458H169.368ZM173.73 23.1968H168.865V0.32193H173.73V23.1968Z" fill="white"/>
<path d="M152.017 14.8467V0.824458H148.061V14.8467L148.063 15.0763C148.102 17.4358 148.745 19.3425 149.991 20.7965C151.299 22.2759 153.282 23.0157 155.941 23.0157C158.496 23.0157 160.427 22.3218 161.734 20.9334L161.859 20.7965C163.167 19.2957 163.82 17.3123 163.82 14.8467V0.824458H159.865V14.8467L159.861 15.1087C159.824 16.4002 159.515 17.4278 158.932 18.1916L158.811 18.3359C158.184 19.033 157.227 19.3817 155.941 19.3817V18.8792C157.218 18.8792 158.041 18.513 158.536 17.8815C159.068 17.1825 159.362 16.1895 159.362 14.8467V0.32193H164.323V14.8467C164.323 17.4037 163.643 19.514 162.238 21.1268L162.235 21.1297C160.803 22.75 158.671 23.5182 155.941 23.5182C153.276 23.5182 151.182 22.7979 149.751 21.2789L149.615 21.1297L149.612 21.1268L149.609 21.1238C148.227 19.511 147.559 17.4017 147.559 14.8467V0.32193H152.52V14.8467L152.523 15.095C152.558 16.3128 152.847 17.2263 153.345 17.8815C153.84 18.513 154.663 18.8791 155.941 18.8792V19.3817L155.688 19.3768C154.528 19.3334 153.656 18.9866 153.071 18.3359L152.95 18.1916C152.367 17.4278 152.057 16.4001 152.021 15.1087L152.017 14.8467Z" fill="white"/>
<path d="M143.473 9.44351C143.473 6.74331 142.819 4.60672 141.511 3.03333L141.383 2.88267C140.033 1.34566 138.079 0.553044 135.522 0.504982L135.272 0.502528C132.571 0.502528 130.523 1.29602 129.129 2.88267C127.757 4.46929 127.071 6.65624 127.071 9.44351V14.0428L127.073 14.2965C127.113 16.9 127.766 18.9704 129.033 20.5075C130.362 22.094 132.303 22.9299 134.854 23.0157L135.24 24.1415C135.583 25.1921 136.033 26.0822 136.59 26.8112C137.169 27.5401 137.963 28.0972 138.971 28.4831C139.978 28.8691 141.318 29.0622 142.991 29.0622V25.042C142.147 25.042 141.442 24.9928 140.877 24.8943L140.643 24.8491C140.1 24.7285 139.661 24.5042 139.326 24.1763L139.26 24.1096C138.96 23.7906 138.717 23.3483 138.532 22.7831L138.456 22.5333C140.107 21.9758 141.351 20.9682 142.187 19.5103C142.991 18.1233 143.418 16.4347 143.468 14.4447L143.473 14.0428V9.44351ZM139.015 9.44351C139.015 7.84349 138.72 6.69986 138.199 5.94298L138.092 5.79674L138.089 5.79232C137.524 5.05125 136.623 4.6396 135.272 4.63955C133.922 4.63955 133.02 5.05121 132.455 5.79232L132.452 5.79674C131.865 6.5494 131.529 7.73694 131.529 9.44351V14.0428L131.533 14.3564C131.57 15.7939 131.859 16.8495 132.348 17.5757L132.455 17.7264C133.02 18.4675 133.922 18.8792 135.272 18.8792V19.3817L135.003 19.3763C133.77 19.3271 132.832 18.9333 132.189 18.1946L132.056 18.0307C131.413 17.1864 131.071 15.9653 131.031 14.3672L131.027 14.0428V9.44351C131.027 7.79533 131.328 6.53349 131.931 5.65786L132.056 5.48757C132.742 4.5871 133.814 4.13702 135.272 4.13702L135.541 4.14193C136.862 4.19466 137.845 4.64335 138.488 5.48757C139.174 6.36664 139.517 7.68537 139.517 9.44351V14.0428L139.513 14.3672C139.473 15.9653 139.131 17.1864 138.488 18.0307C137.802 18.9311 136.73 19.3816 135.272 19.3817V18.8792C136.623 18.8791 137.524 18.4675 138.089 17.7264C138.68 16.95 139.015 15.7481 139.015 14.0428V9.44351ZM143.976 14.0428L143.971 14.4575C143.919 16.5117 143.477 18.2866 142.621 19.762C141.803 21.1882 140.617 22.213 139.083 22.8346C139.212 23.177 139.363 23.4455 139.527 23.6502L139.626 23.7651C139.888 24.0434 140.253 24.2475 140.752 24.3584H140.752C141.303 24.4762 142.046 24.5395 142.991 24.5395H143.493V29.5648H142.991C141.394 29.5647 140.056 29.3931 138.999 29.0284L138.791 28.9528C137.78 28.5657 136.95 28.0085 136.321 27.273L136.197 27.1233L136.192 27.1164C135.595 26.3358 135.121 25.395 134.764 24.3039V24.3044L134.489 23.501C132.078 23.3541 130.155 22.5315 128.785 20.9889L128.648 20.8299L128.645 20.8269C127.242 19.1248 126.568 16.8443 126.568 14.0428V9.44351C126.568 6.57565 127.275 4.2582 128.749 2.55386L128.752 2.55092C130.266 0.826966 132.469 0 135.272 0C137.968 4.51086e-05 140.11 0.776784 141.617 2.39192L141.761 2.55092C143.258 4.25524 143.976 6.57388 143.976 9.44351V14.0428Z" fill="white"/>
<path d="M118.11 0.824458V22.6942H121.97V0.824458H118.11ZM122.472 23.1968H117.607V0.32193H122.472V23.1968Z" fill="white"/>
<path d="M101.809 0.824458V22.6942H114.416V18.9955H105.669V0.824458H101.809ZM106.171 18.4929H114.919V23.1968H101.307V0.32193H106.171V18.4929Z" fill="white"/>
<path d="M75.2693 0.32193H83.0727V0.824458H75.7718V22.6942H79.6316V14.6538H83.1051C84.5845 17.3339 85.8599 20.0141 86.932 22.6942H91.3384C90.0948 19.7997 88.5939 16.8516 86.8358 13.8499C87.7805 13.3876 88.5179 12.7273 89.0481 11.8693L89.1511 11.6951C89.6536 10.8107 89.9206 9.79422 89.952 8.64603L89.9555 8.4144V7.03147C89.9555 5.14468 89.3551 3.64377 88.1544 2.52883C87.0489 1.46351 85.491 0.897457 83.481 0.830838L83.0727 0.824458V0.32193C85.3609 0.32193 87.1947 0.910841 88.496 2.16077H88.4965C89.8153 3.38551 90.458 5.02825 90.458 7.03147V8.4144L90.4546 8.65977C90.4212 9.87917 90.1368 10.9781 89.5884 11.9434C89.0883 12.8235 88.3983 13.5235 87.5292 14.0433C89.0764 16.7189 90.4212 19.3539 91.5622 21.9488L91.8002 22.496L92.101 23.1968H86.5919L86.4658 22.8807C85.4364 20.3074 84.2167 17.7328 82.8072 15.1563H80.1341V23.1968H75.2693V0.32193ZM85.497 7.03147C85.497 6.37556 85.3072 5.8959 84.9596 5.54155L84.888 5.47235L84.8801 5.46499L84.8723 5.45714C84.5028 5.08764 83.9312 4.86431 83.0727 4.86431H80.1341V10.6135H83.0727V11.116H79.6316V4.36178H83.0727C84.0161 4.36178 84.7344 4.60869 85.2276 5.10184C85.7421 5.57354 85.9995 6.21673 85.9995 7.03147V8.4144L85.9966 8.56899C85.9665 9.33289 85.71 9.94596 85.2276 10.4083L85.1324 10.4942C84.6437 10.9087 83.9571 11.116 83.0727 11.116V10.6135C83.9368 10.6135 84.5114 10.3979 84.8801 10.0452C85.2784 9.66328 85.497 9.13915 85.497 8.4144V7.03147Z" fill="white"/>
<path d="M58.5288 0.824458V22.6942H71.201V18.9955H62.3886V13.4637H69.9142V9.76543H62.3886V4.52275H70.8791V0.824458H58.5288ZM71.3816 5.02528H62.8911V9.26291H70.4168V13.9663H62.8911V18.4929H71.7035V23.1968H58.0263V0.32193H71.3816V5.02528Z" fill="white"/>
<path d="M39.5584 0.32193H47.2651V0.824458H40.0609V22.6942H43.9207V15.2972H47.2651L47.6886 15.2903C49.7022 15.2247 51.2405 14.6839 52.3032 13.6674L52.4111 13.5604C53.569 12.3811 54.1479 10.8265 54.1479 8.89681V7.19243C54.1479 5.26272 53.569 3.71856 52.4111 2.56073C51.3458 1.47536 49.7716 0.898662 47.6886 0.830838L47.2651 0.824458V0.32193C49.6354 0.32193 51.5022 0.919697 52.7664 2.20543C54.0352 3.47418 54.6504 5.15505 54.6504 7.19243V8.89681C54.6504 10.9344 54.0353 12.6234 52.7699 13.9123C51.5056 15.2004 49.6376 15.7997 47.2651 15.7997H44.4232V23.1968H39.5584V0.32193ZM49.6894 7.19243C49.6894 6.51208 49.4973 6.02295 49.1516 5.66963L49.0804 5.60093L49.073 5.59357C48.7043 5.24082 48.1292 5.02528 47.2651 5.02528H44.4232V11.0959H47.2651V11.5984H43.9207V4.52275H47.2651C48.2085 4.52275 48.9269 4.75876 49.42 5.23041C49.9346 5.70212 50.192 6.35623 50.192 7.19243V8.89681C50.192 9.75445 49.9346 10.419 49.42 10.8907C48.9269 11.3624 48.2085 11.5984 47.2651 11.5984V11.0959C48.1292 11.0959 48.7043 10.8803 49.073 10.5276L49.0804 10.5202C49.4681 10.1648 49.6894 9.64828 49.6894 8.89681V7.19243Z" fill="white"/>
<path d="M22.7104 14.8467V0.824458H18.7545V14.8467L18.7565 15.0763C18.7954 17.4358 19.4379 19.3425 20.6841 20.7965C21.992 22.2759 23.9753 23.0157 26.634 23.0157C29.1888 23.0157 31.12 22.3218 32.4273 20.9334L32.552 20.7965C33.8598 19.2957 34.5135 17.3123 34.5135 14.8467V0.824458H30.558V14.8467L30.5541 15.1087C30.5177 16.4002 30.208 17.4278 29.6251 18.1916L29.5039 18.3359C28.877 19.033 27.9203 19.3817 26.634 19.3817V18.8792C27.9114 18.8792 28.7346 18.513 29.2296 17.8815C29.7607 17.1825 30.0555 16.1895 30.0555 14.8467V0.32193H35.016V14.8467C35.016 17.4037 34.3362 19.514 32.9308 21.1268L32.9284 21.1297C31.4959 22.75 29.3643 23.5182 26.634 23.5182C23.9696 23.5182 21.8755 22.7979 20.4442 21.2789L20.3077 21.1297L20.3053 21.1268L20.3023 21.1238C18.92 19.511 18.252 17.4017 18.252 14.8467V0.32193H23.213V14.8467L23.2164 15.095C23.2508 16.3128 23.5406 17.2263 24.0384 17.8815C24.5334 18.513 25.3566 18.8791 26.634 18.8792V19.3817L26.3813 19.3768C25.2216 19.3334 24.3492 18.9866 23.7641 18.3359L23.6429 18.1916C23.06 17.4278 22.7503 16.4001 22.7139 15.1087L22.7104 14.8467Z" fill="white"/>
<path d="M15.0371 16.5515C15.0371 14.9837 14.6789 13.7079 13.9628 12.7242L13.8151 12.5313C13.0218 11.5021 11.8315 10.7191 10.2449 10.1831L7.60761 9.31493C6.68575 9.01476 6.02104 8.65033 5.61369 8.22154C5.2519 7.79944 5.0597 7.27362 5.03706 6.64427L5.0351 6.51667C5.03513 5.5948 5.3139 4.96247 5.87133 4.61943C6.45024 4.25498 7.23285 4.07274 8.21908 4.07274L8.4993 4.07715C9.15122 4.09826 9.78678 4.19295 10.4059 4.36179C11.1349 4.53332 12.014 4.82303 13.0432 5.23041L14.2332 1.91785C13.1183 1.4247 12.0674 1.07077 11.0811 0.856359C10.2183 0.65003 9.34718 0.533734 8.46789 0.507926L8.09051 0.502528C5.68909 0.502528 3.91992 1.09242 2.78353 2.27168C1.66866 3.42949 1.11106 4.90902 1.11106 6.71003L1.11597 6.9981C1.21133 9.94704 2.78553 11.92 5.83894 12.917L8.47624 13.7857C9.48381 14.1072 10.1699 14.4822 10.5344 14.911C10.9204 15.3398 11.1135 15.9297 11.1135 16.6801L11.1096 16.8504C11.0342 18.5807 9.79209 19.4459 7.38284 19.446V18.9434C8.57886 18.9434 9.38444 18.7189 9.88125 18.3506C10.3499 18.0032 10.611 17.4772 10.611 16.6801C10.611 16.0155 10.4414 15.5587 10.161 15.2471L10.1561 15.2422L10.1517 15.2363C9.91506 14.9581 9.44665 14.6629 8.67352 14.3829L8.32361 14.2641L8.3192 14.2627L5.6819 13.3945C4.03626 12.857 2.75791 12.0332 1.89331 10.8981C1.02644 9.75995 0.608563 8.35227 0.60853 6.71003C0.60853 4.796 1.20511 3.1858 2.42136 1.92276L2.54258 1.80154C3.81051 0.569885 5.69377 0 8.09051 0C9.13418 1.89339e-05 10.1668 0.121865 11.1876 0.365118C12.213 0.588035 13.2966 0.953893 14.4364 1.45802L14.8643 1.64745L13.3406 5.88851L12.8581 5.69761C11.9691 5.34569 11.2038 5.08729 10.5595 4.9183L10.291 4.85107L10.2822 4.8491L10.2739 4.84665C9.61044 4.66572 8.92584 4.57528 8.21908 4.57526C7.28791 4.57526 6.60954 4.74804 6.13879 5.04442L6.0696 5.09055C5.75244 5.31914 5.53766 5.74249 5.53762 6.51667L5.5391 6.62513C5.55784 7.1541 5.71585 7.56397 5.98911 7.88635C6.31514 8.22362 6.88542 8.55113 7.76318 8.83694L7.76514 8.83743L10.4024 9.70606L10.4059 9.70704C12.0596 10.2657 13.3439 11.0965 14.2131 12.2241C15.1141 13.3433 15.5396 14.8025 15.5396 16.5515L15.5376 16.7419C15.4981 18.703 14.8453 20.3386 13.556 21.6053L13.553 21.6087C12.1975 22.9167 10.1247 23.5182 7.44713 23.5182C6.37951 23.5182 5.27225 23.3959 4.12672 23.1536L4.12132 23.1526L4.11592 23.1511C3.12401 22.9177 2.05596 22.5506 0.913286 22.0533L0.419101 21.8325L0 21.6401L1.52623 17.3907L2.01649 17.6012C3.20051 18.1087 4.19071 18.4617 4.99142 18.6676C5.81322 18.8521 6.61017 18.9434 7.38284 18.9434V19.446L7.07613 19.4416C6.461 19.4235 5.83384 19.3508 5.19459 19.2242L4.87413 19.1564C4.03793 18.942 3.01941 18.5776 1.81872 18.063L0.628651 21.3756C1.93651 21.9759 3.13729 22.4046 4.23076 22.6619C5.20629 22.8682 6.14908 22.9845 7.05895 23.0103L7.44713 23.0157C9.98108 23.0157 11.8612 22.4626 13.0873 21.356L13.2041 21.247C14.3499 20.1213 14.9586 18.6752 15.0302 16.9088L15.0371 16.5515Z" fill="white"/>
</g>
</svg>
