<svg width="24" height="24" viewBox="0 0 24 24" fill="none" xmlns="http://www.w3.org/2000/svg">
<path d="M16.4004 5.09082C17.5049 5.09082 18.4003 5.98629 18.4004 7.09082V22C18.4003 23.1045 17.5049 24 16.4004 24H2C0.89546 24 4.84085e-05 23.1045 0 22V7.09082C4.94771e-05 5.98629 0.895461 5.09082 2 5.09082H16.4004ZM4.2002 17.4541C3.64806 17.4541 3.20044 17.902 3.2002 18.4541V18.6367C3.20043 19.1888 3.64805 19.6367 4.2002 19.6367H11.8008C12.3528 19.6365 12.8005 19.1887 12.8008 18.6367V18.4541C12.8005 17.9021 12.3528 17.4543 11.8008 17.4541H4.2002ZM21.002 0C22.6584 0.000475344 24.002 1.34344 24.002 3V15.9092C24.0019 17.5657 22.6584 18.9087 21.002 18.9092H20.8008V5.90918C20.8008 4.25246 19.4575 2.90939 17.8008 2.90918H4.80273C4.85076 1.29435 6.17432 0 7.80078 0H21.002ZM4.2002 13.0908C3.64794 13.0908 3.20024 13.5386 3.2002 14.0908V14.2725C3.2002 14.8247 3.64791 15.2725 4.2002 15.2725H14.2002C14.7525 15.2725 15.2002 14.8247 15.2002 14.2725V14.0908C15.2001 13.5386 14.7524 13.0908 14.2002 13.0908H4.2002ZM4.2002 9.4541C3.64806 9.4541 3.20044 9.90203 3.2002 10.4541V10.6367C3.20043 11.1888 3.64805 11.6367 4.2002 11.6367H7.7998C8.35195 11.6367 8.79957 11.1888 8.7998 10.6367V10.4541C8.79956 9.90203 8.35194 9.4541 7.7998 9.4541H4.2002Z" fill="white"/>
</svg>
