<svg width="19" height="19" viewBox="0 0 19 19" fill="none" xmlns="http://www.w3.org/2000/svg">
<path d="M1.41493 6.25174C1.82986 6.66667 2.49769 6.66667 3.83333 6.66667C5.16898 6.66667 5.8368 6.66667 6.25173 6.25174C6.66667 5.83681 6.66667 5.16898 6.66667 3.83334C6.66667 2.4977 6.66667 1.82987 6.25173 1.41494C5.8368 1.00001 5.16898 1.00001 3.83333 1.00001C2.49769 1.00001 1.82986 1.00001 1.41493 1.41494C1 1.82987 1 2.4977 1 3.83334C1 5.16898 1 5.83681 1.41493 6.25174Z" stroke="white" stroke-width="2" stroke-linecap="round" stroke-linejoin="round"/>
<path d="M12.7481 6.25174C13.1631 6.66667 13.831 6.66667 15.1666 6.66667C16.5022 6.66667 17.17 6.66667 17.585 6.25174C17.9999 5.83681 17.9999 5.16898 17.9999 3.83334C17.9999 2.4977 17.9999 1.82987 17.585 1.41494C17.17 1.00001 16.5022 1.00001 15.1666 1.00001C13.831 1.00001 13.1631 1.00001 12.7481 1.41494C12.3333 1.82987 12.3333 2.4977 12.3333 3.83334C12.3333 5.16898 12.3333 5.83681 12.7481 6.25174Z" stroke="white" stroke-width="2" stroke-linecap="round" stroke-linejoin="round"/>
<path d="M12.7481 17.5851C13.1631 18 13.831 18 15.1666 18C16.5022 18 17.17 18 17.585 17.5851C17.9999 17.1701 17.9999 16.5023 17.9999 15.1667C17.9999 13.831 17.9999 13.1632 17.585 12.7482C17.17 12.3333 16.5022 12.3333 15.1666 12.3333C13.831 12.3333 13.1631 12.3333 12.7481 12.7482C12.3333 13.1632 12.3333 13.831 12.3333 15.1667C12.3333 16.5023 12.3333 17.1701 12.7481 17.5851Z" stroke="white" stroke-width="2" stroke-linecap="round" stroke-linejoin="round"/>
<path d="M1.41493 17.5851C1.82986 18 2.49769 18 3.83333 18C5.16898 18 5.8368 18 6.25173 17.5851C6.66667 17.1701 6.66667 16.5023 6.66667 15.1667C6.66667 13.831 6.66667 13.1632 6.25173 12.7482C5.8368 12.3333 5.16898 12.3333 3.83333 12.3333C2.49769 12.3333 1.82986 12.3333 1.41493 12.7482C1 13.1632 1 13.831 1 15.1667C1 16.5023 1 17.1701 1.41493 17.5851Z" stroke="white" stroke-width="2" stroke-linecap="round" stroke-linejoin="round"/>
<path d="M9.50008 3.83334H6.66675" stroke="white" stroke-width="2" stroke-linecap="round" stroke-linejoin="round"/>
<path d="M12.3333 15.1667H9.5" stroke="white" stroke-width="2" stroke-linecap="round" stroke-linejoin="round"/>
<path d="M15.1667 9.50001V6.66668" stroke="white" stroke-width="2" stroke-linecap="round" stroke-linejoin="round"/>
<path d="M3.83337 12.3333V9.50001" stroke="white" stroke-width="2" stroke-linecap="round" stroke-linejoin="round"/>
</svg>
