<svg width="20" height="20" viewBox="0 0 20 20" fill="none" xmlns="http://www.w3.org/2000/svg">
<path d="M9.39963 1.24868C9.7312 0.917105 10.2688 0.917106 10.6004 1.24868L13.0223 3.67058C13.3538 4.00215 13.3538 4.53975 13.0223 4.87132L10.6004 7.29322C10.2688 7.6248 9.7312 7.6248 9.39963 7.29322L6.97773 4.87132C6.64616 4.53975 6.64616 4.00215 6.97773 3.67058L9.39963 1.24868Z" stroke="black" stroke-width="2"/>
<path d="M15.1287 6.97773C15.4603 6.64615 15.9978 6.64616 16.3294 6.97773L18.7513 9.39963C19.0829 9.7312 19.0829 10.2688 18.7513 10.6004L16.3294 13.0223C15.9978 13.3538 15.4603 13.3538 15.1287 13.0223L12.7068 10.6004C12.3752 10.2688 12.3752 9.7312 12.7068 9.39963L15.1287 6.97773Z" stroke="black" stroke-width="2"/>
<path d="M3.67058 6.97773C4.00216 6.64615 4.53975 6.64616 4.87132 6.97773L7.29322 9.39963C7.6248 9.7312 7.6248 10.2688 7.29322 10.6004L4.87132 13.0223C4.53975 13.3538 4.00215 13.3538 3.67058 13.0223L1.24868 10.6004C0.917106 10.2688 0.917106 9.7312 1.24868 9.39963L3.67058 6.97773Z" stroke="black" stroke-width="2"/>
<path d="M9.39963 12.7068C9.7312 12.3752 10.2688 12.3752 10.6004 12.7068L13.0223 15.1287C13.3538 15.4603 13.3538 15.9978 13.0223 16.3294L10.6004 18.7513C10.2688 19.0829 9.7312 19.0829 9.39963 18.7513L6.97773 16.3294C6.64616 15.9978 6.64616 15.4603 6.97773 15.1287L9.39963 12.7068Z" stroke="black" stroke-width="2"/>
</svg>
