<svg width="20" height="20" viewBox="0 0 20 20" fill="none" xmlns="http://www.w3.org/2000/svg">
<path fill-rule="evenodd" clip-rule="evenodd" d="M8.12399 0.690934C9.20502 -0.230311 10.795 -0.230311 11.876 0.690934L13.1018 1.73558C13.2563 1.86717 13.4483 1.9467 13.6505 1.96284L15.256 2.09096C16.6718 2.20394 17.7961 3.32822 17.909 4.74404L18.0372 6.34951C18.0533 6.55175 18.1328 6.74374 18.2644 6.89816L19.3091 8.12399C20.2303 9.20502 20.2303 10.795 19.3091 11.876L18.2644 13.1018C18.1328 13.2563 18.0533 13.4483 18.0372 13.6505L17.909 15.256C17.7961 16.6718 16.6718 17.7961 15.256 17.909L13.6505 18.0372C13.4483 18.0533 13.2563 18.1328 13.1018 18.2644L11.876 19.3091C10.795 20.2303 9.20502 20.2303 8.12399 19.3091L6.89816 18.2644C6.74374 18.1328 6.55175 18.0533 6.34951 18.0372L4.74404 17.909C3.32822 17.7961 2.20394 16.6718 2.09096 15.256L1.96284 13.6505C1.9467 13.4483 1.86717 13.2563 1.73558 13.1018L0.690934 11.876C-0.230311 10.795 -0.230311 9.20502 0.690934 8.12399L1.73558 6.89816C1.86717 6.74374 1.9467 6.55175 1.96284 6.34951L2.09096 4.74404C2.20394 3.32822 3.32822 2.20394 4.74404 2.09096L6.34951 1.96284C6.55175 1.9467 6.74374 1.86717 6.89816 1.73558L8.12399 0.690934ZM10.6253 2.15853C10.265 1.85145 9.73501 1.85145 9.37466 2.15853L8.14883 3.20318C7.68559 3.59795 7.10961 3.83653 6.5029 3.88494L4.89742 4.01306C4.42548 4.05072 4.05072 4.42548 4.01306 4.89742L3.88494 6.5029C3.83653 7.10961 3.59795 7.68559 3.20318 8.14883L2.15853 9.37466C1.85145 9.73501 1.85145 10.265 2.15853 10.6253L3.20318 11.8512C3.59795 12.3144 3.83653 12.8904 3.88494 13.4971L4.01306 15.1026C4.05072 15.5745 4.42548 15.9493 4.89742 15.9869L6.5029 16.1151C7.10961 16.1635 7.68559 16.4021 8.14883 16.7968L9.37466 17.8415C9.73501 18.1486 10.265 18.1486 10.6253 17.8415L11.8512 16.7968C12.3144 16.4021 12.8904 16.1635 13.4971 16.1151L15.1026 15.9869C15.5745 15.9493 15.9493 15.5745 15.9869 15.1026L16.1151 13.4971C16.1635 12.8904 16.4021 12.3144 16.7968 11.8512L17.8415 10.6253C18.1486 10.265 18.1486 9.73501 17.8415 9.37466L16.7968 8.14883C16.4021 7.68559 16.1635 7.10961 16.1151 6.5029L15.9869 4.89742C15.9493 4.42548 15.5745 4.05072 15.1026 4.01306L13.4971 3.88494C12.8904 3.83653 12.3144 3.59795 11.8512 3.20318L10.6253 2.15853Z" fill="white"/>
<path d="M9.03589 7.58973C9.03589 8.38842 8.38842 9.03589 7.58973 9.03589C6.79104 9.03589 6.14357 8.38842 6.14357 7.58973C6.14357 6.79104 6.79104 6.14357 7.58973 6.14357C8.38842 6.14357 9.03589 6.79104 9.03589 7.58973Z" fill="white"/>
<path d="M13.8564 12.4103C13.8564 13.209 13.209 13.8564 12.4103 13.8564C11.6116 13.8564 10.9641 13.209 10.9641 12.4103C10.9641 11.6116 11.6116 10.9641 12.4103 10.9641C13.209 10.9641 13.8564 11.6116 13.8564 12.4103Z" fill="white"/>
<path fill-rule="evenodd" clip-rule="evenodd" d="M13.0275 6.36703C13.4365 6.7079 13.4918 7.31583 13.1509 7.72488L8.33038 13.5095C7.9895 13.9186 7.38157 13.9738 6.97252 13.633C6.56347 13.2921 6.50821 12.6842 6.84908 12.2751L11.6696 6.49047C12.0105 6.08142 12.6184 6.02615 13.0275 6.36703Z" fill="white"/>
</svg>
