<svg width="14" height="14" viewBox="0 0 14 14" fill="none" xmlns="http://www.w3.org/2000/svg">
<path fill-rule="evenodd" clip-rule="evenodd" d="M0 2.72222C0 1.21878 1.21878 0 2.72222 0C4.22566 0 5.44444 1.21878 5.44444 2.72222V3.88889H8.55556V2.72222C8.55556 1.21878 9.77434 0 11.2778 0C12.7812 0 14 1.21878 14 2.72222C14 4.22566 12.7812 5.44444 11.2778 5.44444H10.1111V8.55556H11.2778C12.7812 8.55556 14 9.77434 14 11.2778C14 12.7812 12.7812 14 11.2778 14C9.77434 14 8.55556 12.7812 8.55556 11.2778V10.1111H5.44444V11.2778C5.44444 12.7812 4.22566 14 2.72222 14C1.21878 14 0 12.7812 0 11.2778C0 9.77434 1.21878 8.55556 2.72222 8.55556H3.88889V5.44444H2.72222C1.21878 5.44444 0 4.22566 0 2.72222ZM3.88889 3.88889V2.72222C3.88889 2.07789 3.36655 1.55556 2.72222 1.55556C2.07789 1.55556 1.55556 2.07789 1.55556 2.72222C1.55556 3.36655 2.07789 3.88889 2.72222 3.88889H3.88889ZM5.44444 5.44444V8.55556H8.55556V5.44444H5.44444ZM3.88889 10.1111H2.72222C2.07789 10.1111 1.55556 10.6334 1.55556 11.2778C1.55556 11.9221 2.07789 12.4444 2.72222 12.4444C3.36655 12.4444 3.88889 11.9221 3.88889 11.2778V10.1111ZM10.1111 10.1111V11.2778C10.1111 11.9221 10.6334 12.4444 11.2778 12.4444C11.9221 12.4444 12.4444 11.9221 12.4444 11.2778C12.4444 10.6334 11.9221 10.1111 11.2778 10.1111H10.1111ZM10.1111 3.88889H11.2778C11.9221 3.88889 12.4444 3.36655 12.4444 2.72222C12.4444 2.07789 11.9221 1.55556 11.2778 1.55556C10.6334 1.55556 10.1111 2.07789 10.1111 2.72222V3.88889Z" fill="white"/>
</svg>
