<svg width="22" height="22" viewBox="0 0 22 22" fill="none" xmlns="http://www.w3.org/2000/svg">
<path fill-rule="evenodd" clip-rule="evenodd" d="M11 12.1C11.6075 12.1 12.1 11.6075 12.1 11C12.1 10.3925 11.6075 9.9 11 9.9C10.3925 9.9 9.9 10.3925 9.9 11C9.9 11.6075 10.3925 12.1 11 12.1ZM11 14.3C12.8225 14.3 14.3 12.8225 14.3 11C14.3 9.17746 12.8225 7.7 11 7.7C9.17746 7.7 7.7 9.17746 7.7 11C7.7 12.8225 9.17746 14.3 11 14.3Z" fill="white"/>
<path fill-rule="evenodd" clip-rule="evenodd" d="M11 0C11.6075 0 12.1 0.492487 12.1 1.1V2.26808C16.0806 2.76446 19.2355 5.91941 19.7319 9.9H20.9C21.5075 9.9 22 10.3925 22 11C22 11.6075 21.5075 12.1 20.9 12.1H19.7319C19.2355 16.0806 16.0806 19.2355 12.1 19.7319V20.9C12.1 21.5075 11.6075 22 11 22C10.3925 22 9.9 21.5075 9.9 20.9V19.7319C5.91941 19.2355 2.76446 16.0806 2.26808 12.1H1.1C0.492487 12.1 0 11.6075 0 11C0 10.3925 0.492487 9.9 1.1 9.9H2.26808C2.76446 5.91941 5.91941 2.76446 9.9 2.26808V1.1C9.9 0.492487 10.3925 0 11 0ZM11 17.6C14.6451 17.6 17.6 14.6451 17.6 11C17.6 7.35492 14.6451 4.4 11 4.4C7.35492 4.4 4.4 7.35492 4.4 11C4.4 14.6451 7.35492 17.6 11 17.6Z" fill="white"/>
</svg>
