<svg width="20" height="20" viewBox="0 0 20 20" fill="none" xmlns="http://www.w3.org/2000/svg">
<path d="M7 17C7.13068 16.9984 7.25978 16.9712 7.38 16.92C7.50119 16.8694 7.6128 16.7983 7.71 16.71C7.75525 16.6608 7.79545 16.6072 7.83 16.55C7.86958 16.4989 7.90003 16.4414 7.92 16.38C7.9558 16.3245 7.98278 16.2638 8 16.2C8.00491 16.1334 8.00491 16.0666 8 16C7.99842 15.8693 7.97124 15.7402 7.92 15.62C7.87509 15.4959 7.80343 15.3832 7.71011 15.2899C7.6168 15.1966 7.5041 15.1249 7.38 15.08C7.19898 14.9961 6.99699 14.9682 6.8 15L6.62 15.06C6.55857 15.08 6.50105 15.1104 6.45 15.15C6.39279 15.1846 6.33919 15.2248 6.29 15.27C6.19896 15.3651 6.12759 15.4772 6.08 15.6C6.02613 15.7264 5.9989 15.8626 6 16C6 16.2652 6.10536 16.5196 6.29289 16.7071C6.48043 16.8946 6.73478 17 7 17ZM3.29 16.71C3.3872 16.7983 3.49881 16.8694 3.62 16.92C3.74022 16.9712 3.86932 16.9984 4 17H4.19C4.25623 16.9907 4.32045 16.9705 4.38 16.94C4.44372 16.9181 4.50425 16.8878 4.56 16.85L4.71 16.73C4.79833 16.6328 4.86936 16.5212 4.92 16.4C4.97913 16.2753 5.0066 16.1379 5 16C5.00491 15.9334 5.00491 15.8666 5 15.8C4.98905 15.7374 4.96883 15.6767 4.94 15.62C4.92003 15.5586 4.88958 15.5011 4.85 15.45C4.81545 15.3928 4.77525 15.3392 4.73 15.29C4.58938 15.1512 4.4108 15.0572 4.21681 15.0199C4.02282 14.9825 3.82211 15.0034 3.64 15.08C3.51725 15.1276 3.4051 15.199 3.31 15.29C3.26475 15.3392 3.22455 15.3928 3.19 15.45C3.15042 15.5011 3.11997 15.5586 3.1 15.62C3.05717 15.6742 3.0234 15.735 3 15.8C2.99509 15.8666 2.99509 15.9334 3 16C3.00158 16.1307 3.02876 16.2598 3.08 16.38C3.13064 16.5012 3.20167 16.6128 3.29 16.71V16.71ZM17 0H3C2.20435 0 1.44129 0.316071 0.87868 0.87868C0.316071 1.44129 0 2.20435 0 3V17C0 17.7956 0.316071 18.5587 0.87868 19.1213C1.44129 19.6839 2.20435 20 3 20H17C17.7956 20 18.5587 19.6839 19.1213 19.1213C19.6839 18.5587 20 17.7956 20 17V3C20 2.20435 19.6839 1.44129 19.1213 0.87868C18.5587 0.316071 17.7956 0 17 0ZM18 17C18 17.2652 17.8946 17.5196 17.7071 17.7071C17.5196 17.8946 17.2652 18 17 18H3C2.73478 18 2.48043 17.8946 2.29289 17.7071C2.10536 17.5196 2 17.2652 2 17V14H18V17ZM18 12H2V8H6C6.13161 8.00076 6.26207 7.97554 6.38391 7.92577C6.50574 7.87601 6.61656 7.80268 6.71 7.71L8 6.46L10.8 9.66C10.8903 9.76296 11.0008 9.84627 11.1247 9.90475C11.2486 9.96324 11.3831 9.99566 11.52 10C11.6516 10.0008 11.7821 9.97554 11.9039 9.92577C12.0257 9.87601 12.1366 9.80268 12.23 9.71L13.91 8H18V12ZM18 6H13.5C13.3684 5.99924 13.2379 6.02446 13.1161 6.07423C12.9943 6.12399 12.8834 6.19732 12.79 6.29L11.55 7.54L8.75 4.34C8.65646 4.24009 8.54341 4.16044 8.41784 4.10599C8.29227 4.05154 8.15687 4.02345 8.02 4.02345C7.88314 4.02345 7.74773 4.05154 7.62216 4.10599C7.49659 4.16044 7.38354 4.24009 7.29 4.34L5.59 6H2V3C2 2.73478 2.10536 2.48043 2.29289 2.29289C2.48043 2.10536 2.73478 2 3 2H17C17.2652 2 17.5196 2.10536 17.7071 2.29289C17.8946 2.48043 18 2.73478 18 3V6Z" fill="white"/>
</svg>
