<svg width="20" height="19" viewBox="0 0 20 19" fill="none" xmlns="http://www.w3.org/2000/svg">
<ellipse cx="9.99995" cy="2.88889" rx="1.8" ry="1.88889" stroke="white" stroke-width="2" stroke-linecap="round" stroke-linejoin="round"/>
<path d="M8.20005 2.88889H2.80005M11.8 2.88889H17.2" stroke="white" stroke-width="2" stroke-linecap="round" stroke-linejoin="round"/>
<path d="M14.5 18H5.5" stroke="white" stroke-width="2" stroke-linecap="round" stroke-linejoin="round"/>
<path d="M10 4.77777V18" stroke="white" stroke-width="2" stroke-linecap="round" stroke-linejoin="round"/>
<path d="M19 11.3889C19 12.9537 17.7911 14.2222 16.3 14.2222C14.8088 14.2222 13.6 12.9537 13.6 11.3889M19 11.3889L16.75 5.72223H15.85L13.6 11.3889M19 11.3889H13.6" stroke="white" stroke-width="2" stroke-linecap="round" stroke-linejoin="round"/>
<path d="M6.4 11.3889C6.4 12.9537 5.19117 14.2222 3.7 14.2222C2.20883 14.2222 1 12.9537 1 11.3889M6.4 11.3889L4.15 5.72223H3.25L1 11.3889M6.4 11.3889H1" stroke="white" stroke-width="2" stroke-linecap="round" stroke-linejoin="round"/>
</svg>
