<svg width="24" height="24" viewBox="0 0 24 24" fill="none" xmlns="http://www.w3.org/2000/svg">
<path d="M5.25 0C5.44891 0 5.63968 0.0790176 5.78033 0.21967C5.92098 0.360322 6 0.551088 6 0.75V1.5H18V0.75C18 0.551088 18.079 0.360322 18.2197 0.21967C18.3603 0.0790176 18.5511 0 18.75 0C18.9489 0 19.1397 0.0790176 19.2803 0.21967C19.421 0.360322 19.5 0.551088 19.5 0.75V1.5H21C21.7956 1.5 22.5587 1.81607 23.1213 2.37868C23.6839 2.94129 24 3.70435 24 4.5V21C24 21.7956 23.6839 22.5587 23.1213 23.1213C22.5587 23.6839 21.7956 24 21 24H3C2.20435 24 1.44129 23.6839 0.87868 23.1213C0.316071 22.5587 0 21.7956 0 21V4.5C0 3.70435 0.316071 2.94129 0.87868 2.37868C1.44129 1.81607 2.20435 1.5 3 1.5H4.5V0.75C4.5 0.551088 4.57902 0.360322 4.71967 0.21967C4.86032 0.0790176 5.05109 0 5.25 0ZM3 3C2.60218 3 2.22064 3.15804 1.93934 3.43934C1.65804 3.72064 1.5 4.10218 1.5 4.5V21C1.5 21.3978 1.65804 21.7794 1.93934 22.0607C2.22064 22.342 2.60218 22.5 3 22.5H21C21.3978 22.5 21.7794 22.342 22.0607 22.0607C22.342 21.7794 22.5 21.3978 22.5 21V4.5C22.5 4.10218 22.342 3.72064 22.0607 3.43934C21.7794 3.15804 21.3978 3 21 3H3Z" fill="white"/>
<path d="M3.75 6C3.75 5.80109 3.82902 5.61032 3.96967 5.46967C4.11032 5.32902 4.30109 5.25 4.5 5.25H19.5C19.6989 5.25 19.8897 5.32902 20.0303 5.46967C20.171 5.61032 20.25 5.80109 20.25 6V7.5C20.25 7.69891 20.171 7.88968 20.0303 8.03033C19.8897 8.17098 19.6989 8.25 19.5 8.25H4.5C4.30109 8.25 4.11032 8.17098 3.96967 8.03033C3.82902 7.88968 3.75 7.69891 3.75 7.5V6Z" fill="white"/>
<path d="M16.6122 10.2727V19H15.5554V11.3807H15.5042L13.3735 12.7955V11.7216L15.5554 10.2727H16.6122Z" fill="white"/>
<path d="M8.85226 19.1193C8.28976 19.1193 7.78834 19.0227 7.348 18.8295C6.9105 18.6364 6.56249 18.3679 6.30397 18.0242C6.04828 17.6776 5.90908 17.2756 5.88635 16.8182H6.96022C6.98294 17.0994 7.07953 17.3423 7.24999 17.5469C7.42044 17.7486 7.64345 17.9048 7.91902 18.0156C8.19459 18.1264 8.49999 18.1818 8.83522 18.1818C9.21022 18.1818 9.5426 18.1165 9.83238 17.9858C10.1221 17.8551 10.3494 17.6733 10.5142 17.4403C10.679 17.2074 10.7614 16.9375 10.7614 16.6307C10.7614 16.3097 10.6818 16.027 10.5227 15.7827C10.3636 15.5355 10.1307 15.3423 9.82385 15.2031C9.51703 15.0639 9.14203 14.9943 8.69885 14.9943H7.99999V14.0568H8.69885C9.04544 14.0568 9.34942 13.9943 9.61078 13.8693C9.87499 13.7443 10.081 13.5682 10.2287 13.3409C10.3793 13.1136 10.4545 12.8466 10.4545 12.5398C10.4545 12.2443 10.3892 11.9872 10.2585 11.7685C10.1278 11.5497 9.94317 11.3793 9.70453 11.2571C9.46874 11.1349 9.19033 11.0739 8.86931 11.0739C8.56817 11.0739 8.28408 11.1293 8.01703 11.2401C7.75283 11.348 7.53692 11.5057 7.36931 11.7131C7.20169 11.9176 7.11078 12.1648 7.09658 12.4545H6.07385C6.0909 11.9972 6.22868 11.5966 6.4872 11.2528C6.74573 10.9063 7.0838 10.6364 7.50141 10.4432C7.92186 10.25 8.38351 10.1534 8.88635 10.1534C9.42613 10.1534 9.88919 10.2628 10.2756 10.4815C10.6619 10.6974 10.9588 10.983 11.1662 11.3381C11.3736 11.6932 11.4773 12.0767 11.4773 12.4886C11.4773 12.9801 11.348 13.3992 11.0895 13.7457C10.8338 14.0923 10.4858 14.3324 10.0454 14.4659V14.5341C10.5966 14.625 11.027 14.8594 11.3366 15.2372C11.6463 15.6122 11.8011 16.0767 11.8011 16.6307C11.8011 17.1051 11.6719 17.5313 11.4133 17.9091C11.1577 18.2841 10.8082 18.5795 10.365 18.7955C9.92186 19.0114 9.4176 19.1193 8.85226 19.1193Z" fill="white"/>
</svg>
