<svg width="20" height="20" viewBox="0 0 20 20" fill="none" xmlns="http://www.w3.org/2000/svg">
<path d="M0.75 0.75L18.75 18.75" stroke="white" stroke-width="1.5" stroke-linecap="round" stroke-linejoin="round"/>
<path d="M8.25 8.42709C7.9388 8.77959 7.75 9.24279 7.75 9.74999C7.75 10.8545 8.6454 11.75 9.75 11.75C10.2572 11.75 10.7203 11.5612 11.0729 11.25" stroke="white" stroke-width="1.5" stroke-linecap="round" stroke-linejoin="round"/>
<path d="M5.11185 5.3111C3.43002 6.48968 2.02894 8.1688 0.75 9.75C2.63856 12.741 6.0317 15.75 9.75 15.75C11.2999 15.75 12.7934 15.2272 14.1449 14.4008" stroke="white" stroke-width="1.5" stroke-linecap="round" stroke-linejoin="round"/>
<path d="M9.75 3.75C13.7584 3.75 16.4515 6.9082 18.75 9.75C18.4315 10.2543 18.0703 10.7592 17.672 11.25" stroke="white" stroke-width="1.5" stroke-linecap="round" stroke-linejoin="round"/>
</svg>
