<svg width="22" height="17" viewBox="0 0 22 17" fill="none" xmlns="http://www.w3.org/2000/svg">
<path d="M19.0525 16L4.05249 1M8.85249 6.94157C8.47907 7.35326 8.25249 7.89403 8.25249 8.48631C8.25249 9.77609 9.32701 10.8217 10.6525 10.8217C11.2636 10.8217 11.8214 10.5994 12.2451 10.2334M19.0913 10.8217C19.9175 9.58482 20.2525 8.57613 20.2525 8.57613C20.2525 8.57613 18.0679 1.6 10.6525 1.6C10.2362 1.6 9.83636 1.62199 9.45249 1.66349M16.0525 13.8494C14.6751 14.7281 12.9018 15.3495 10.6525 15.3127C3.32941 15.193 1.05249 8.57613 1.05249 8.57613C1.05249 8.57613 2.11035 5.19808 5.25249 3.14332" stroke="black" stroke-width="2" stroke-linecap="round"/>
</svg>
