<svg width="20" height="20" viewBox="0 0 20 20" fill="none" xmlns="http://www.w3.org/2000/svg">
<path d="M8.39189 17.0858C8.39188 16.9635 8.36498 16.8428 8.31311 16.7322C8.26124 16.6215 8.18566 16.5236 8.09174 16.4454C7.99782 16.3672 7.88784 16.3106 7.76962 16.2797C7.65139 16.2487 7.5278 16.2441 7.4076 16.2663C6.3167 16.4665 4.93934 16.4966 4.57313 15.4679C4.2538 14.6713 3.72485 13.9759 3.04237 13.4554C2.99367 13.4289 2.94726 13.3984 2.90362 13.3643C2.84389 13.2067 2.7378 13.071 2.59934 12.9749C2.46088 12.8789 2.29656 12.8271 2.12806 12.8264H2.12399C1.90366 12.8263 1.69227 12.9135 1.53609 13.0689C1.37991 13.2243 1.29166 13.4353 1.29066 13.6556C1.2874 14.3351 1.96649 14.7705 2.24199 14.9178C2.56686 15.2442 2.82795 15.6284 3.01185 16.0506C3.3154 16.9035 4.19756 18.1974 6.73337 18.0306C6.7342 18.0599 6.73499 18.0876 6.7354 18.1128L6.73906 18.3358C6.73906 18.5568 6.82686 18.7688 6.98314 18.9251C7.13942 19.0813 7.35138 19.1691 7.57239 19.1691C7.79341 19.1691 8.00537 19.0813 8.16165 18.9251C8.31793 18.7688 8.40573 18.5568 8.40573 18.3358L8.40166 18.0705C8.39759 17.9126 8.39189 17.6839 8.39189 17.0858ZM17.2811 4.48076C17.3075 4.37659 17.3336 4.26103 17.3563 4.13082C17.4911 3.20215 17.3736 2.25432 17.0162 1.38666C16.9711 1.27354 16.9018 1.17166 16.8131 1.08816C16.7245 1.00466 16.6187 0.941551 16.5031 0.903266C16.2064 0.803166 15.1111 0.606224 13.0163 1.94493C11.2751 1.53518 9.46255 1.53518 7.72134 1.94493C5.63514 0.625833 4.54546 0.804833 4.25168 0.899233C4.13323 0.935966 4.02451 0.998738 3.93347 1.08295C3.84243 1.16716 3.77139 1.27067 3.72555 1.3859C3.3608 2.27022 3.24459 3.23738 3.38945 4.18293C3.4098 4.28954 3.43177 4.38802 3.45456 4.47834C2.7642 5.39788 2.39649 6.51948 2.40842 7.66926C2.40617 7.92579 2.41799 8.18225 2.44382 8.43748C2.72215 12.2729 5.22215 13.4245 6.96408 13.82C6.92787 13.9242 6.89491 14.0356 6.86561 14.1536C6.81339 14.3681 6.84834 14.5944 6.96278 14.7831C7.07722 14.9718 7.26181 15.1074 7.47609 15.1602C7.69036 15.213 7.91682 15.1786 8.10582 15.0647C8.29481 14.9508 8.4309 14.7665 8.48426 14.5524C8.53728 14.2747 8.67319 14.0197 8.87408 13.8208C8.99554 13.7145 9.08348 13.5751 9.12721 13.4197C9.17093 13.2643 9.16855 13.0995 9.12035 12.9455C9.07215 12.7914 8.98022 12.6546 8.85573 12.5519C8.73125 12.4491 8.57957 12.3847 8.41916 12.3665C5.54074 12.0378 4.29114 10.8651 4.10316 8.2845C4.08234 8.08011 4.07296 7.87471 4.07509 7.66927C4.06172 6.84981 4.33244 6.051 4.84128 5.40852C4.89241 5.34154 4.94686 5.27717 5.00444 5.21565C5.10647 5.10149 5.17507 4.96142 5.20271 4.81082C5.23034 4.66023 5.21595 4.50493 5.16111 4.36197C5.10489 4.21158 5.0616 4.05667 5.03172 3.89892C4.96383 3.45035 4.9861 2.99274 5.09722 2.55288C5.8215 2.75744 6.50315 3.09042 7.10972 3.53595C7.21003 3.60276 7.32353 3.64722 7.44253 3.66632C7.56153 3.68542 7.68324 3.6787 7.79942 3.64663C9.48368 3.18955 11.2594 3.18984 12.9435 3.64747C13.0603 3.6795 13.1826 3.68583 13.3021 3.66602C13.4216 3.64621 13.5354 3.60074 13.6356 3.53272C14.2393 3.08534 14.9181 2.74939 15.64 2.5407C15.7506 2.96999 15.7754 3.41691 15.7128 3.8558C15.6826 4.02875 15.6355 4.1983 15.572 4.36199C15.5172 4.50494 15.5028 4.66024 15.5304 4.81084C15.5581 4.96143 15.6267 5.1015 15.7287 5.21567C15.793 5.28809 15.8573 5.36622 15.9151 5.43946C16.4203 6.07106 16.6865 6.86069 16.6666 7.66926C16.6681 7.8856 16.6577 8.10186 16.6353 8.31704C16.4518 10.8634 15.1973 12.0369 12.3055 12.3665C12.145 12.3848 11.9933 12.4493 11.8689 12.5522C11.7444 12.6551 11.6525 12.7919 11.6043 12.946C11.5562 13.1002 11.5539 13.265 11.5976 13.4204C11.6414 13.5759 11.7294 13.7152 11.851 13.8216C12.0582 14.0258 12.1944 14.2911 12.2396 14.5784C12.2959 14.8015 12.3217 15.0312 12.3165 15.2612V17.2062C12.3083 17.7458 12.3083 18.1502 12.3083 18.3358C12.3083 18.5568 12.3961 18.7687 12.5524 18.925C12.7087 19.0813 12.9206 19.1691 13.1416 19.1691C13.3626 19.1691 13.5746 19.0813 13.7309 18.925C13.8872 18.7687 13.975 18.5568 13.975 18.3358C13.975 18.1551 13.975 17.7588 13.9831 17.2192V15.2612C13.9898 14.8927 13.9464 14.5251 13.8541 14.1683C13.8277 14.0512 13.7954 13.9355 13.7573 13.8216C15.025 13.611 16.1768 12.9574 17.0078 11.9771C17.8388 10.9968 18.2949 9.7535 18.295 8.46842C18.3225 8.20294 18.3353 7.93615 18.3333 7.66926C18.3518 6.51823 17.981 5.3947 17.2811 4.48077L17.2811 4.48076Z" fill="white"/>
</svg>
