<svg width="24" height="24" viewBox="0 0 24 24" fill="none" xmlns="http://www.w3.org/2000/svg">
<g opacity="0.6">
<path fill-rule="evenodd" clip-rule="evenodd" d="M2.05779 12.395C2.24281 11.8746 2.81464 11.6028 3.33501 11.7878L11.33 14.6304C11.7634 14.7845 12.2366 14.7845 12.67 14.6304L20.665 11.7878C21.1854 11.6028 21.7572 11.8746 21.9422 12.395C22.1272 12.9154 21.8554 13.4872 21.335 13.6722L13.34 16.5149C12.4733 16.8231 11.5267 16.8231 10.66 16.5149L2.66499 13.6722C2.14462 13.4872 1.87276 12.9154 2.05779 12.395Z" fill="white"/>
<path fill-rule="evenodd" clip-rule="evenodd" d="M2.05779 16.645C2.24281 16.1246 2.81464 15.8528 3.33501 16.0378L11.33 18.8804C11.7634 19.0345 12.2366 19.0345 12.67 18.8804L20.665 16.0378C21.1854 15.8528 21.7572 16.1246 21.9422 16.645C22.1272 17.1654 21.8554 17.7372 21.335 17.9222L13.34 20.7649C12.4733 21.0731 11.5267 21.0731 10.66 20.7649L2.66499 17.9222C2.14462 17.7372 1.87276 17.1654 2.05779 16.645Z" fill="white"/>
<path d="M13.7088 3.30729C12.605 2.90591 11.3952 2.90591 10.2914 3.30729L3.24278 5.87042C1.48744 6.50872 1.48743 8.99128 3.24278 9.62959L10.2914 12.1927C11.3952 12.5941 12.605 12.5941 13.7088 12.1927L20.7574 9.62959C22.5128 8.99128 22.5128 6.50873 20.7574 5.87042L13.7088 3.30729Z" fill="white"/>
</g>
</svg>
