<svg width="21" height="20" viewBox="0 0 21 20" fill="none" xmlns="http://www.w3.org/2000/svg">
<path d="M7.09998 18.4227H13.1M7.09998 18.4227H5.09998C2.89084 18.4227 1.09998 16.6318 1.09998 14.4227V8.13033C1.09998 6.7316 1.83059 5.43448 3.02677 4.70952L8.02677 1.67922C9.30108 0.906936 10.8989 0.906936 12.1732 1.67922L17.1732 4.70952C18.3694 5.43448 19.1 6.7316 19.1 8.13033V14.4227C19.1 16.6318 17.3091 18.4227 15.1 18.4227H13.1H7.09998ZM7.09998 18.4227V14.4227C7.09998 12.7658 8.44308 11.4227 10.1 11.4227C11.7569 11.4227 13.1 12.7658 13.1 14.4227V18.4227H7.09998Z" stroke="#FFFDFD" stroke-width="2.2" stroke-linecap="round" stroke-linejoin="round"/>
</svg>
