<svg width="17" height="19" viewBox="0 0 17 19" fill="none" xmlns="http://www.w3.org/2000/svg">
<path d="M9 17H1C0.447715 17 0 17.4477 0 18C0 18.5523 0.447716 19 1 19H9C9.55229 19 10 18.5523 10 18C10 17.4477 9.55228 17 9 17Z" fill="white"/>
<path d="M16.7102 15.2614L9.17614 7.72728L11.2045 5.69887C11.5909 6.08522 12.1704 6.08522 12.5568 5.69887C12.9432 5.31252 12.9432 4.73298 12.5568 4.34658L8.50001 0.289762C8.11367 -0.0965872 7.53412 -0.0965872 7.14773 0.289762C6.76133 0.67611 6.76138 1.25566 7.14773 1.64205L1.73862 7.14773C1.35228 6.76139 0.67611 6.76139 0.289761 7.14773C-0.0965871 7.53408 -0.0965871 8.11363 0.289761 8.50002L4.44315 12.5568C4.8295 12.9432 5.40905 12.9432 5.79544 12.5568C6.18183 12.1705 6.18179 11.5909 5.79544 11.2046L7.82385 9.17615L15.3579 16.7102C15.7443 17.0966 16.3238 17.0966 16.7102 16.7102C17.0966 16.3239 17.0966 15.6477 16.7102 15.2614Z" fill="white"/>
</svg>
