<svg width="18" height="20" viewBox="0 0 18 20" fill="none" xmlns="http://www.w3.org/2000/svg">
<path d="M3 6C4.10457 6 5 5.10457 5 4C5 2.89543 4.10457 2 3 2C1.89543 2 1 2.89543 1 4C1 5.10457 1.89543 6 3 6Z" stroke="#B1B1B2" stroke-width="2" stroke-linecap="round" stroke-linejoin="round"/>
<path d="M15 18C16.1046 18 17 17.1046 17 16C17 14.8954 16.1046 14 15 14C13.8954 14 13 14.8954 13 16C13 17.1046 13.8954 18 15 18Z" stroke="#B1B1B2" stroke-width="2" stroke-linecap="round" stroke-linejoin="round"/>
<path d="M8 4H13C13.5304 4 14.0391 4.21071 14.4142 4.58579C14.7893 4.96086 15 5.46957 15 6V14" stroke="#B1B1B2" stroke-width="2" stroke-linecap="round" stroke-linejoin="round"/>
<path d="M11 7L8 4L11 1" stroke="#B1B1B2" stroke-width="2" stroke-linecap="round" stroke-linejoin="round"/>
<path d="M10 16H5C4.46957 16 3.96086 15.7893 3.58579 15.4142C3.21071 15.0391 3 14.5304 3 14V6" stroke="#B1B1B2" stroke-width="2" stroke-linecap="round" stroke-linejoin="round"/>
<path d="M7 13L10 16L7 19" stroke="#B1B1B2" stroke-width="2" stroke-linecap="round" stroke-linejoin="round"/>
</svg>
