<svg width="30" height="30" viewBox="0 0 30 30" fill="none" xmlns="http://www.w3.org/2000/svg">
<path d="M15.7366 29.5982L15.683 29.5895C15.6905 29.5953 15.6994 29.5991 15.7087 29.6007C15.7181 29.6022 15.7277 29.6013 15.7366 29.5982Z" fill="#014D25"/>
<path d="M27.9174 10.4317C27.9021 10.3509 27.8603 10.2775 27.7986 10.2232C27.7368 10.1689 27.6587 10.1368 27.5766 10.1319C27.4945 10.1271 27.4132 10.1498 27.3455 10.1965C27.2778 10.2431 27.2276 10.3111 27.2029 10.3895C27.1793 10.464 27.1326 10.529 27.0697 10.5754C27.0068 10.6217 26.9308 10.6469 26.8527 10.6473H25.8168C25.7497 10.6474 25.6839 10.6291 25.6266 10.5944L24.1279 9.69576C24.0705 9.66108 24.0048 9.64279 23.9377 9.64286H21.5404C21.4674 9.64278 21.3961 9.66446 21.3355 9.70513L18.379 11.6759C18.3279 11.7099 18.2861 11.7562 18.2573 11.8104C18.2286 11.8647 18.2138 11.9252 18.2143 11.9866V14.7817C18.2142 14.8487 18.2324 14.9144 18.2668 14.9719C18.3013 15.0293 18.3507 15.0763 18.4098 15.1078L22.2864 17.177C22.3446 17.2083 22.3935 17.2546 22.4278 17.3112C22.4622 17.3677 22.4809 17.4323 22.4819 17.4984L22.5 19.0714C22.501 19.1365 22.5192 19.2002 22.5527 19.2561C22.5862 19.3119 22.6339 19.358 22.6909 19.3895L24.2484 20.2513C24.3062 20.2834 24.3543 20.3303 24.3878 20.3871C24.4214 20.444 24.4391 20.5088 24.4393 20.5748V23.8292C24.4393 23.9004 24.4598 23.97 24.4984 24.0297C24.537 24.0895 24.592 24.1368 24.6568 24.1661C24.7217 24.1953 24.7936 24.2053 24.8639 24.1947C24.9342 24.1841 25 24.1535 25.0534 24.1065C25.6815 23.5533 26.5822 22.7458 26.702 22.5609C26.9002 22.2542 27.0862 21.9402 27.2598 21.6187C27.6195 20.9528 27.9241 20.2585 28.1705 19.5429C29.0197 17.0846 28.3487 12.6656 27.9174 10.4317Z" fill="#014D25"/>
<path d="M17.0357 18.1339L12.9288 15.0536C12.8824 15.0188 12.8261 15 12.7681 15H10.8194C10.7861 15 10.7531 14.9935 10.7223 14.9807C10.6915 14.968 10.6635 14.9493 10.64 14.9257L9.72122 14.0069C9.69633 13.9821 9.66678 13.9623 9.63426 13.9489C9.60174 13.9355 9.5669 13.9285 9.53171 13.9286H5.96988C5.91968 13.9286 5.87061 13.9137 5.82888 13.8858C5.78714 13.8579 5.75461 13.8183 5.7354 13.7719C5.71619 13.7255 5.71116 13.6745 5.72095 13.6253C5.73075 13.576 5.75492 13.5308 5.79042 13.4953L6.35426 12.9315C6.3778 12.9079 6.40578 12.8892 6.43657 12.8764C6.46737 12.8637 6.50039 12.8571 6.53372 12.8571H8.70135C8.8181 12.8571 8.93165 12.819 9.02473 12.7485C9.1178 12.6781 9.18531 12.5791 9.21698 12.4667L9.67836 10.8261C9.6882 10.7909 9.70516 10.758 9.7282 10.7295C9.75123 10.7011 9.77985 10.6777 9.81229 10.6607L11.6518 9.71384C11.6932 9.69245 11.7279 9.66008 11.7521 9.62027C11.7763 9.58047 11.7891 9.53476 11.7891 9.48817V8.65112C11.7892 8.59918 11.805 8.5485 11.8346 8.50581L12.8123 7.09822C12.8416 7.05593 12.8832 7.02367 12.9315 7.00581L14.2996 6.49219C14.348 6.47405 14.3897 6.44157 14.4191 6.39909C14.4485 6.35661 14.4643 6.30615 14.4643 6.25447V5.49107C14.4643 5.44922 14.454 5.408 14.4342 5.37109C14.4145 5.33418 14.3859 5.30271 14.3511 5.27947L12.9797 4.36741C12.942 4.34262 12.8985 4.32821 12.8534 4.32562C12.8084 4.32304 12.7635 4.33237 12.7232 4.35268L10.8563 5.28616C10.8136 5.30725 10.7658 5.31586 10.7184 5.31101C10.671 5.30615 10.6259 5.28802 10.5884 5.25871L9.70314 4.55893C9.67293 4.53464 9.64867 4.50376 9.63222 4.46866C9.61576 4.43356 9.60754 4.39516 9.60819 4.3564C9.60883 4.31764 9.61833 4.27954 9.63594 4.24501C9.65356 4.21047 9.67883 4.18042 9.70984 4.15715L10.429 3.62746C10.4616 3.60358 10.488 3.57225 10.5059 3.5361C10.5239 3.49995 10.533 3.46003 10.5324 3.41965C10.5318 3.37928 10.5216 3.33964 10.5026 3.30403C10.4835 3.26842 10.4562 3.23788 10.423 3.21496L9.30269 2.43349C9.26391 2.40618 9.21824 2.39032 9.17088 2.38772C9.12352 2.38511 9.07638 2.39587 9.03484 2.41875C8.6297 2.64041 7.44109 3.29666 7.01921 3.59197C5.06727 4.96081 3.4964 6.80455 2.45493 8.94911C2.33305 9.2009 2.18238 9.45737 2.16765 9.73393C2.15292 10.0105 1.93595 10.6279 1.84555 10.8777C1.83336 10.9114 1.82848 10.9474 1.83125 10.9832C1.83402 11.019 1.84438 11.0538 1.86162 11.0853L4.25158 15.4768C4.27308 15.5167 4.30502 15.55 4.34399 15.5732L6.8585 17.0826C6.89112 17.102 6.91895 17.1285 6.93993 17.1602C6.96091 17.1918 6.9745 17.2278 6.9797 17.2654L7.48327 20.9176C7.4882 20.9526 7.50032 20.9862 7.51887 21.0163C7.53743 21.0464 7.56202 21.0723 7.59109 21.0924L9.55314 22.4411C9.60998 22.4801 9.64955 22.5396 9.66363 22.6071L10.7043 27.5491C10.7101 27.5781 10.7212 27.6058 10.7371 27.6308C10.8348 27.7888 11.2246 28.3674 11.6947 28.4531C11.6511 28.4652 11.6123 28.4926 11.5688 28.5054C11.6817 28.5252 11.7935 28.5511 11.9036 28.583C12.0375 28.6192 12.1714 28.65 12.3054 28.6788C12.515 28.7203 12.5357 28.7525 12.6362 28.5663C12.7701 28.3172 12.9235 28.2315 13.038 28.2007C13.0852 28.1898 13.1284 28.1658 13.1627 28.1314C13.1969 28.0971 13.2208 28.0538 13.2315 28.0065L13.9058 24.8806C13.92 24.8151 13.9582 24.7572 14.013 24.7185L17.0264 22.5824C17.0614 22.5576 17.0899 22.5248 17.1096 22.4867C17.1293 22.4486 17.1396 22.4063 17.1395 22.3634V18.3482C17.1399 18.3069 17.1308 18.2661 17.1127 18.2289C17.0947 18.1917 17.0684 18.1592 17.0357 18.1339Z" fill="#014D25"/>
<path d="M15.4018 1.07143C15.4018 1.07143 15.1574 1.08549 15.1078 1.08683C14.7449 1.09754 14.3828 1.12254 14.0216 1.16183C12.7051 1.30466 11.4157 1.63501 10.1926 2.14286C10.3554 2.25536 10.0754 2.35848 10.0754 2.35848L10.5134 3.21429H12.8571L14.4643 4.01786L15.8705 3.21429L15.4018 1.07143Z" fill="#014D25"/>
<path d="M21.5779 5.89687L22.6567 4.95937C22.6905 4.93006 22.7164 4.89277 22.732 4.85089C22.7477 4.809 22.7526 4.76387 22.7463 4.7196C22.7401 4.67532 22.7228 4.63332 22.6962 4.59742C22.6695 4.56152 22.6343 4.53286 22.5938 4.51406L21.3342 3.92946C21.2702 3.89961 21.197 3.89623 21.1305 3.92006C21.0641 3.94389 21.0097 3.99299 20.9792 4.05669L20.4603 5.14219C20.432 5.20153 20.4266 5.26919 20.445 5.33228C20.4634 5.39538 20.5043 5.44951 20.5601 5.48437L21.2605 5.92232C21.3092 5.9526 21.3663 5.96646 21.4234 5.96188C21.4805 5.9573 21.5347 5.93452 21.5779 5.89687Z" fill="#014D25"/>
<path d="M26.6277 7.27701L26.2373 6.67433C26.2312 6.66495 26.2259 6.65558 26.2205 6.64553C26.1502 6.50156 25.5683 5.32634 25.0821 4.87031C24.7172 4.52544 24.6134 4.62455 24.5846 4.70089C24.5681 4.74311 24.5406 4.78012 24.5049 4.80803L22.5737 6.36897C22.5261 6.40745 22.4668 6.42848 22.4056 6.42857H21.4058C21.3706 6.42854 21.3358 6.43545 21.3032 6.44889C21.2707 6.46233 21.2412 6.48205 21.2163 6.50692L20.4127 7.31049C20.3878 7.33536 20.3681 7.36491 20.3546 7.39742C20.3411 7.42994 20.3342 7.4648 20.3342 7.5C20.3342 7.5352 20.3411 7.57005 20.3546 7.60257C20.3681 7.63509 20.3878 7.66463 20.4127 7.68951L21.2163 8.49308C21.2412 8.51794 21.2707 8.53766 21.3032 8.55111C21.3358 8.56455 21.3706 8.57145 21.4058 8.57143H26.4395C26.4757 8.57146 26.5114 8.56417 26.5447 8.55C26.578 8.53584 26.608 8.51508 26.633 8.48899C26.6581 8.4629 26.6776 8.43201 26.6903 8.39819C26.7031 8.36437 26.7089 8.32831 26.7074 8.29218L26.6705 7.4116C26.6685 7.36371 26.6537 7.31723 26.6277 7.27701Z" fill="#014D25"/>
<path d="M15 2.67857C17.8506 2.67833 20.6132 3.66653 22.8169 5.47478C25.0206 7.28303 26.5292 9.79945 27.0855 12.5953C27.6419 15.3911 27.2116 18.2933 25.868 20.8075C24.5244 23.3216 22.3506 25.2921 19.717 26.3832C17.0835 27.4743 14.1531 27.6184 11.4251 26.7911C8.69715 25.9638 6.34046 24.2162 4.75657 21.8461C3.17269 19.476 2.45962 16.63 2.73885 13.793C3.01809 10.9561 4.27236 8.30377 6.28795 6.28795C7.42927 5.1401 8.78696 4.23006 10.2824 3.6105C11.7778 2.99095 13.3813 2.67419 15 2.67857ZM15 0C6.71652 0 0 6.71652 0 15C0 23.2835 6.71652 30 15 30C23.2835 30 30 23.2835 30 15C30 6.71652 23.2835 0 15 0Z" fill="#014D25"/>
</svg>
