<svg width="20" height="20" viewBox="0 0 20 20" fill="none" xmlns="http://www.w3.org/2000/svg">
<path d="M13.2001 13.0001L15.0001 15.0001M14.1001 9.5001C14.1001 7.01483 12.2869 5.00011 10.0501 5.00011C7.81337 5.00011 6.00012 7.01483 6.00012 9.5001C6.00012 11.9854 7.81337 14.0001 10.0501 14.0001C12.2869 14.0001 14.1001 11.9854 14.1001 9.5001Z" stroke="white" stroke-width="2" stroke-linecap="round" stroke-linejoin="round"/>
<path d="M12.8422 19.0001C14.6065 19.0001 15.4887 19.0001 16.1951 18.743C17.3792 18.312 18.312 17.3792 18.743 16.195C19.0001 15.4887 19.0001 14.6065 19.0001 12.8422M7.15802 19.0001C5.39372 19.0001 4.51157 19.0001 3.80519 18.743C2.62103 18.312 1.68822 17.3792 1.25722 16.195C1.00012 15.4887 1.00012 14.6065 1.00012 12.8422M7.15802 1.00011C5.39372 1.00011 4.51157 1.00011 3.80519 1.2572C2.62103 1.6882 1.68822 2.62102 1.25722 3.80518C1.00012 4.51156 1.00012 5.3937 1.00012 7.15801M12.8422 1.00011C14.6065 1.00011 15.4887 1.00011 16.1951 1.2572C17.3792 1.6882 18.312 2.62102 18.743 3.80518C19.0001 4.51156 19.0001 5.3937 19.0001 7.15801" stroke="white" stroke-width="2" stroke-linecap="round" stroke-linejoin="round"/>
</svg>
