<svg width="20" height="20" viewBox="0 0 20 20" fill="none" xmlns="http://www.w3.org/2000/svg">
<path d="M7 18.3227H13M7 18.3227H5C2.79086 18.3227 1 16.5318 1 14.3227V8.03032C1 6.63159 1.73061 5.33447 2.92679 4.60951L7.92679 1.57921C9.2011 0.80693 10.7989 0.80693 12.0732 1.57921L17.0732 4.60951C18.2694 5.33447 19 6.63159 19 8.03032V14.3227C19 16.5318 17.2091 18.3227 15 18.3227H13H7ZM7 18.3227V14.3227C7 12.6658 8.3431 11.3227 10 11.3227C11.6569 11.3227 13 12.6658 13 14.3227V18.3227H7Z" stroke="#FFFDFD" stroke-width="2" stroke-linecap="round" stroke-linejoin="round"/>
</svg>
