<svg width="14" height="13" viewBox="0 0 14 13" fill="none" xmlns="http://www.w3.org/2000/svg">
<path opacity="0.8" d="M1.44446 8.7766V12.6125C1.44446 12.8486 1.63524 12.9466 1.69459 12.9689C1.75394 12.9956 1.95319 13.0536 2.13125 12.8798L4.90145 10.0911C5.13736 9.85368 5.36504 9.60406 5.53614 9.31201C5.61666 9.17471 5.65005 9.09738 5.65005 9.09738C5.81966 8.73649 5.81966 8.389 5.65426 8.04147C5.40845 7.52469 4.78096 6.99899 3.83552 6.5L2.22029 7.44451C1.74123 7.72962 1.44446 8.23307 1.44446 8.7766Z" fill="white"/>
<path d="M0 0.402807V4.23157C0 4.71071 0.325579 5.1347 0.788241 5.27039C2.3647 5.71983 5.11064 6.68655 5.77466 8.107C5.86026 8.29353 5.91169 8.47588 5.92894 8.66667C6.37014 7.87377 6.57146 6.96217 6.47724 6.03783C6.34867 4.72765 5.64609 3.53621 4.54948 2.77723L0.638302 0.0763085C0.569754 0.0254267 0.48836 0 0.40697 0C0.338422 0 0.278449 0.0127133 0.214194 0.0466345C0.0856717 0.118724 0 0.250162 0 0.402807Z" fill="white"/>
<path opacity="0.8" d="M12.2778 8.7766V12.6125C12.2778 12.8486 12.0871 12.9466 12.0277 12.9689C11.9684 12.9956 11.769 13.0536 11.591 12.8798L8.75629 10.0263C8.56335 9.83199 8.37907 9.62653 8.23374 9.39108C8.11862 9.20475 8.07222 9.09738 8.07222 9.09738C7.9026 8.73649 7.9026 8.389 8.06787 8.04147C8.31382 7.52469 8.94132 6.99899 9.88662 6.5L11.5019 7.44451C11.9853 7.72962 12.2778 8.23307 12.2778 8.7766Z" fill="white"/>
<path d="M13.7222 0.402807V4.23157C13.7222 4.71071 13.3965 5.1347 12.9338 5.27039C11.3574 5.71983 8.61152 6.68658 7.94751 8.10697C7.86176 8.29356 7.81033 8.47588 7.79323 8.66667C7.35203 7.87379 7.15071 6.96217 7.24493 6.03783C7.37335 4.72765 8.07593 3.53621 9.17268 2.77723L13.0839 0.0763085C13.1524 0.0254267 13.2338 0 13.3151 0C13.3836 0 13.4437 0.0127133 13.5078 0.0466345C13.6364 0.118724 13.7222 0.250162 13.7222 0.402807Z" fill="white"/>
</svg>
