<svg width="17" height="20" viewBox="0 0 17 20" fill="none" xmlns="http://www.w3.org/2000/svg">
<path d="M3.80528 4.15097C4.00975 1.80241 5.97589 0 8.33333 0C10.6908 0 12.6569 1.80241 12.8614 4.15096L13.1702 7.69813C13.1785 7.79302 13.1826 7.84047 13.1872 7.88736C13.2967 8.99393 13.6357 10.0655 14.1825 11.0338C14.2057 11.0748 14.2296 11.116 14.2774 11.1984L15.0229 12.4827C15.7051 13.6582 16.0462 14.2459 15.8501 14.7066C15.8187 14.7802 15.7786 14.8498 15.7307 14.9139C15.4307 15.3148 14.7512 15.3148 13.3921 15.3148H3.27461C1.9155 15.3148 1.23595 15.3148 0.935976 14.9139C0.888016 14.8498 0.847926 14.7802 0.816567 14.7066C0.620426 14.2459 0.961551 13.6582 1.6438 12.4827L2.38924 11.1984C2.43705 11.116 2.46096 11.0748 2.48413 11.0338C3.03096 10.0655 3.36994 8.99393 3.47942 7.88736C3.48406 7.84047 3.48819 7.79302 3.49646 7.69813L3.80528 4.15097Z" fill="#FFF8F8"/>
<path d="M6.72346 17.8314C6.81842 17.9332 7.02766 18.0232 7.31873 18.0874C7.6098 18.1516 7.96644 18.1864 8.33333 18.1864C8.70022 18.1864 9.05686 18.1516 9.34794 18.0874C9.63901 18.0232 9.84825 17.9332 9.94321 17.8314" stroke="#FFF8F8" stroke-width="2" stroke-linecap="round"/>
</svg>
