<svg width="30" height="30" viewBox="0 0 30 30" fill="none" xmlns="http://www.w3.org/2000/svg">
<circle cx="15" cy="15" r="15" fill="#1D81E5"/>
<path d="M23.2031 9.60938C20.2667 10.3969 17.9495 11.0156 14.7656 11.0156C11.5818 11.0156 9.26455 10.3969 6.32812 9.60938L5.625 11.8506C7.73438 12.7528 9.87495 13.3957 12.0937 14.1885L9.84375 26.4844L12.3223 27.1875L14.3262 19.4531H15.2051L17.209 27.1875L19.6875 26.4844L17.4375 14.1885C19.655 13.4735 21.7969 12.7528 23.9062 11.8945L23.2031 9.60938Z" fill="white"/>
<path d="M14.7656 9.60938C14.2789 9.60938 13.8031 9.46504 13.3984 9.19463C12.9937 8.92422 12.6783 8.53988 12.492 8.0902C12.3058 7.64052 12.257 7.14571 12.352 6.66833C12.4469 6.19096 12.6813 5.75246 13.0255 5.40829C13.3696 5.06412 13.8081 4.82974 14.2855 4.73479C14.7629 4.63983 15.2577 4.68857 15.7074 4.87483C16.1571 5.06109 16.5414 5.37652 16.8118 5.78121C17.0822 6.18591 17.2266 6.66171 17.2266 7.14844C17.2259 7.80091 16.9664 8.42645 16.505 8.88781C16.0436 9.34918 15.4181 9.60868 14.7656 9.60938Z" fill="white"/>
</svg>
