<svg width="21" height="21" viewBox="0 0 21 21" fill="none" xmlns="http://www.w3.org/2000/svg">
<path d="M11.0858 8.08578L18.4688 15.5038C19.2918 16.3238 19.2918 17.6518 18.4688 18.4708C18.0734 18.864 17.5384 19.0848 16.9808 19.0848C16.4231 19.0848 15.8882 18.864 15.4928 18.4708L8.08579 11.0858" stroke="#B1B1B2" stroke-width="2" stroke-linecap="round" stroke-linejoin="round"/>
<path d="M4.08579 7.08578L8.08579 11.0858" stroke="#B1B1B2" stroke-width="2" stroke-linecap="round" stroke-linejoin="round"/>
<path d="M11.0858 8.08578L7.08579 4.08578" stroke="#B1B1B2" stroke-width="2" stroke-linecap="round" stroke-linejoin="round"/>
<path d="M1.08579 19.0858H8.08579" stroke="#B1B1B2" stroke-width="2" stroke-linecap="round" stroke-linejoin="round"/>
<path d="M4.87879 13.8788L1.29279 10.2928C1.10532 10.1053 1 9.85095 1 9.58579C1 9.32062 1.10532 9.06631 1.29279 8.87879L3.58579 6.58579L4.08579 7.08579L7.08579 4.08579L6.58579 3.58579L8.87879 1.29279C9.06632 1.10532 9.32062 1 9.58579 1C9.85095 1 10.1053 1.10532 10.2928 1.29279L13.8788 4.87879C14.0663 5.06631 14.1716 5.32062 14.1716 5.58579C14.1716 5.85095 14.0663 6.10526 13.8788 6.29279L11.5858 8.58579L11.0858 8.08579L8.08579 11.0858L8.58579 11.5858L6.29279 13.8788C6.10526 14.0663 5.85095 14.1716 5.58579 14.1716C5.32062 14.1716 5.06632 14.0663 4.87879 13.8788V13.8788Z" stroke="#B1B1B2" stroke-width="2" stroke-linecap="round" stroke-linejoin="round"/>
</svg>
