<svg width="30" height="30" viewBox="0 0 30 30" fill="none" xmlns="http://www.w3.org/2000/svg">
<path d="M15 0C6.71611 0 0 6.71611 0 15C0 23.2839 6.71611 30 15 30C23.2839 30 30 23.2839 30 15C30 6.71611 23.2839 0 15 0ZM15 23.0769C13.0292 23.0761 11.1264 22.3559 9.64898 21.0516C8.17153 19.7473 7.22095 17.9485 6.97572 15.993L6.33678 16.632L4.70481 15L8.02212 11.6827L11.4512 14.9625L9.85601 16.6298L9.33678 16.1337C9.55074 17.1856 10.053 18.1572 10.7875 18.9401C11.5219 19.723 12.4596 20.2862 13.4957 20.5668C14.5319 20.8473 15.6256 20.8342 16.6547 20.529C17.6839 20.2237 18.6078 19.6382 19.3233 18.838L21.0375 20.382C20.2758 21.2287 19.3449 21.9061 18.3048 22.3704C17.2648 22.8346 16.1389 23.0753 15 23.0769ZM21.98 18.3173L18.551 15.0361L20.1462 13.3688L20.6409 13.8411C20.4237 12.7934 19.9202 11.8265 19.1864 11.0479C18.4525 10.2693 17.5171 9.70952 16.4841 9.43083C15.451 9.15213 14.361 9.16545 13.3351 9.4693C12.3092 9.77315 11.3877 10.3556 10.6731 11.1519L8.95529 9.61082C9.9925 8.4553 11.3404 7.62269 12.8379 7.21239C14.3355 6.80209 15.9195 6.83144 17.4008 7.29693C18.8822 7.76243 20.1982 8.6444 21.1919 9.83755C22.1856 11.0307 22.815 12.4846 23.0048 14.0257L23.6618 13.368L25.2952 15L21.98 18.3173Z" fill="#00C8FF"/>
</svg>
