<svg width="21" height="21" viewBox="0 0 21 21" fill="none" xmlns="http://www.w3.org/2000/svg">
<g opacity="0.5">
<path fill-rule="evenodd" clip-rule="evenodd" d="M8.42642 0.716656C9.5477 -0.238885 11.1969 -0.238885 12.3181 0.716656L13.5896 1.80019C13.7498 1.93668 13.9489 2.01917 14.1587 2.03591L15.8239 2.1688C17.2924 2.28599 18.4586 3.45212 18.5758 4.92065L18.7086 6.58589C18.7254 6.79565 18.8079 6.99479 18.9444 7.15496L20.0279 8.42642C20.9834 9.5477 20.9834 11.1969 20.0279 12.3181L18.9444 13.5896C18.8079 13.7498 18.7254 13.9489 18.7086 14.1587L18.5758 15.8239C18.4586 17.2924 17.2924 18.4586 15.8239 18.5758L14.1587 18.7086C13.9489 18.7254 13.7498 18.8079 13.5896 18.9444L12.3181 20.0279C11.1969 20.9834 9.5477 20.9834 8.42642 20.0279L7.15496 18.9444C6.99479 18.8079 6.79565 18.7254 6.58589 18.7086L4.92065 18.5758C3.45212 18.4586 2.28599 17.2924 2.1688 15.8239L2.03591 14.1587C2.01917 13.9489 1.93668 13.7498 1.80019 13.5896L0.716656 12.3181C-0.238885 11.1969 -0.238885 9.5477 0.716656 8.42642L1.80019 7.15496C1.93668 6.99479 2.01917 6.79565 2.03591 6.58589L2.1688 4.92065C2.28599 3.45212 3.45212 2.28599 4.92065 2.1688L6.58589 2.03591C6.79565 2.01917 6.99479 1.93668 7.15496 1.80019L8.42642 0.716656ZM11.0209 2.23889C10.6471 1.92037 10.0974 1.92037 9.72366 2.23889L8.45219 3.32242C7.9717 3.73189 7.37428 3.97935 6.74498 4.02957L5.07974 4.16246C4.59023 4.20152 4.20152 4.59023 4.16246 5.07974L4.02957 6.74498C3.97935 7.37428 3.73189 7.9717 3.32242 8.45219L2.23889 9.72366C1.92037 10.0974 1.92037 10.6471 2.23889 11.0209L3.32242 12.2924C3.73189 12.7729 3.97935 13.3703 4.02957 13.9996L4.16246 15.6648C4.20152 16.1543 4.59023 16.543 5.07974 16.5821L6.74498 16.715C7.37428 16.7652 7.9717 17.0127 8.45219 17.4221L9.72366 18.5057C10.0974 18.8242 10.6471 18.8242 11.0209 18.5057L12.2924 17.4221C12.7729 17.0127 13.3703 16.7652 13.9996 16.715L15.6648 16.5821C16.1543 16.543 16.543 16.1543 16.5821 15.6648L16.715 13.9996C16.7652 13.3703 17.0127 12.7729 17.4221 12.2924L18.5057 11.0209C18.8242 10.6471 18.8242 10.0974 18.5057 9.72366L17.4221 8.45219C17.0127 7.9717 16.7652 7.37428 16.715 6.74498L16.5821 5.07974C16.543 4.59023 16.1543 4.20152 15.6648 4.16246L13.9996 4.02957C13.3703 3.97935 12.7729 3.73189 12.2924 3.32242L11.0209 2.23889Z" fill="white"/>
<path d="M9.37228 7.87228C9.37228 8.7007 8.7007 9.37228 7.87228 9.37228C7.04385 9.37228 6.37228 8.7007 6.37228 7.87228C6.37228 7.04385 7.04385 6.37228 7.87228 6.37228C8.7007 6.37228 9.37228 7.04385 9.37228 7.87228Z" fill="white"/>
<path d="M14.3723 12.8723C14.3723 13.7007 13.7007 14.3723 12.8723 14.3723C12.0438 14.3723 11.3723 13.7007 11.3723 12.8723C11.3723 12.0438 12.0438 11.3723 12.8723 11.3723C13.7007 11.3723 14.3723 12.0438 14.3723 12.8723Z" fill="white"/>
<path fill-rule="evenodd" clip-rule="evenodd" d="M13.5125 6.60405C13.9367 6.95762 13.9941 7.58818 13.6405 8.01246L8.6405 14.0125C8.28693 14.4367 7.65637 14.4941 7.23209 14.1405C6.80781 13.7869 6.75049 13.1564 7.10405 12.7321L12.1041 6.73209C12.4576 6.30781 13.0882 6.25049 13.5125 6.60405Z" fill="white"/>
</g>
</svg>
