<svg width="20" height="20" viewBox="0 0 20 20" fill="none" xmlns="http://www.w3.org/2000/svg">
<path d="M7 1H3C1.89543 1 1 1.89543 1 3V7M7 19H3C1.89543 19 1 18.1046 1 17V13M13 1H17C18.1046 1 19 1.89543 19 3V7M19 13V17C19 18.1046 18.1046 19 17 19H13M13.375 10.0003C13.375 11.8642 11.864 13.3753 10 13.3753C8.13604 13.3753 6.625 11.8642 6.625 10.0003C6.625 8.13631 8.13604 6.62527 10 6.62527C11.864 6.62527 13.375 8.13631 13.375 10.0003Z" stroke="#dcd3f5" stroke-width="2" stroke-linecap="round"/>
</svg>
