<svg width="30" height="30" viewBox="0 0 30 30" fill="none" xmlns="http://www.w3.org/2000/svg">
<path d="M15 9.78261C13.9404 9.78261 12.9045 10.0886 12.0235 10.6619C11.1424 11.2352 10.4557 12.05 10.0502 13.0034C9.64471 13.9567 9.53861 15.0058 9.74534 16.0179C9.95206 17.0299 10.4623 17.9596 11.2116 18.6893C11.9609 19.4189 12.9155 19.9158 13.9548 20.1171C14.9941 20.3185 16.0713 20.2151 17.0503 19.8202C18.0292 19.4253 18.866 18.7566 19.4547 17.8986C20.0434 17.0406 20.3576 16.0319 20.3576 15C20.3534 13.6175 19.7875 12.2929 18.7837 11.3153C17.7799 10.3378 16.4196 9.78674 15 9.78261ZM26.5671 15C26.5643 15.4875 26.5276 15.9743 26.4572 16.457L29.718 18.943C29.86 19.0572 29.9557 19.2169 29.988 19.3935C30.0203 19.5701 29.987 19.7521 29.8941 19.907L26.8095 25.093C26.7157 25.2466 26.5694 25.363 26.3962 25.4218C26.223 25.4806 26.034 25.478 25.8625 25.4146L22.0285 23.9146C21.2301 24.5133 20.3565 25.0101 19.4287 25.393L18.8555 29.357C18.8234 29.5345 18.729 29.6957 18.5884 29.813C18.4478 29.9303 18.2697 29.9964 18.0846 30H11.9154C11.7336 29.9966 11.5585 29.9332 11.4185 29.8203C11.2785 29.7075 11.1819 29.5517 11.1445 29.3785L10.5713 25.4146C9.64097 25.0361 8.76666 24.5384 7.97149 23.9348L4.13745 25.4348C3.96607 25.4983 3.77717 25.501 3.60397 25.4423C3.43077 25.3836 3.28437 25.2673 3.19049 25.1139L0.105852 19.9285C0.0130033 19.7736 -0.0202602 19.5916 0.0120058 19.415C0.0442717 19.2384 0.139965 19.0788 0.281984 18.9646L3.54276 16.4785C3.47321 15.9885 3.43652 15.4946 3.43293 15C3.43571 14.5125 3.47241 14.0257 3.54276 13.543L0.281984 11.057C0.139965 10.9428 0.0442717 10.7831 0.0120058 10.6065C-0.0202602 10.4299 0.0130033 10.2479 0.105852 10.093L3.19049 4.90696C3.28427 4.75343 3.43063 4.63703 3.60383 4.57822C3.77704 4.51941 3.96599 4.52196 4.13745 4.58543L7.97149 6.08543C8.76985 5.48675 9.64353 4.98989 10.5713 4.60696L11.1445 0.643044C11.1766 0.465489 11.271 0.304295 11.4116 0.187007C11.5522 0.0697197 11.7303 0.00361874 11.9154 0H18.0846C18.2664 0.00344448 18.4415 0.0667769 18.5815 0.179659C18.7215 0.29254 18.8181 0.448304 18.8555 0.621522L19.4287 4.58543C20.3602 4.96368 21.2356 5.46133 22.0319 6.06522L25.8625 4.56522C26.0339 4.50169 26.2228 4.49904 26.396 4.55772C26.5692 4.61641 26.7156 4.73268 26.8095 4.88609L29.8941 10.0722C29.987 10.2271 30.0203 10.4091 29.988 10.5857C29.9557 10.7622 29.86 10.9219 29.718 11.0361L26.4572 13.5222C26.5268 14.0119 26.5635 14.5056 26.5671 15Z" fill="#FFB700"/>
</svg>
