<svg width="19" height="19" viewBox="0 0 19 19" fill="none" xmlns="http://www.w3.org/2000/svg">
<path d="M14.2002 16.5833C16.4905 15.0605 18 12.4565 18 9.5C18 4.80558 14.1944 1 9.5 1C8.8508 1 8.2186 1.07278 7.61111 1.21063M14.2002 16.5833V13.9737M14.2002 16.5833H17.1053M4.77778 2.43135C2.4998 3.95618 1 6.55294 1 9.5C1 14.1944 4.80558 18 9.5 18C10.1492 18 10.7814 17.9272 11.3889 17.7894M4.77778 2.43135V5.02632M4.77778 2.43135H1.89474" stroke="#FFF3F3" stroke-width="2" stroke-linecap="round" stroke-linejoin="round"/>
<path d="M9.94737 5.02632L6.8158 9.50001H12.1842L9.05264 13.9737" stroke="#FFF3F3" stroke-width="2" stroke-linecap="round" stroke-linejoin="round"/>
</svg>
