<svg width="42" height="42" viewBox="0 0 42 42" fill="none" xmlns="http://www.w3.org/2000/svg">
<circle cx="21" cy="21" r="21" fill="#9391F7"/>
<path d="M13.75 12.5C13.5511 12.5 13.3603 12.421 13.2197 12.2803C13.079 12.1397 13 11.9489 13 11.75C13 11.5511 13.079 11.3603 13.2197 11.2197C13.3603 11.079 13.5511 11 13.75 11H28.25C28.4489 11 28.6397 11.079 28.7803 11.2197C28.921 11.3603 29 11.5511 29 11.75C29 11.9489 28.921 12.1397 28.7803 12.2803C28.6397 12.421 28.4489 12.5 28.25 12.5H13.75ZM14.22 21.97C14.1504 22.0396 14.0952 22.1222 14.0575 22.2132C14.0199 22.3041 14.0005 22.4016 14.0005 22.5C14.0005 22.5984 14.0199 22.6959 14.0575 22.7868C14.0952 22.8778 14.1504 22.9604 14.22 23.03C14.2896 23.0996 14.3722 23.1548 14.4632 23.1925C14.5541 23.2301 14.6516 23.2495 14.75 23.2495C14.8484 23.2495 14.9459 23.2301 15.0368 23.1925C15.1278 23.1548 15.2104 23.0996 15.28 23.03L20.25 18.061V30.25C20.25 30.4489 20.329 30.6397 20.4697 30.7803C20.6103 30.921 20.8011 31 21 31C21.1989 31 21.3897 30.921 21.5303 30.7803C21.671 30.6397 21.75 30.4489 21.75 30.25V18.061L26.72 23.03C26.8606 23.1706 27.0512 23.2495 27.25 23.2495C27.4488 23.2495 27.6394 23.1706 27.78 23.03C27.9206 22.8894 27.9995 22.6988 27.9995 22.5C27.9995 22.3012 27.9206 22.1106 27.78 21.97L21.53 15.72C21.4604 15.6503 21.3778 15.5951 21.2869 15.5574C21.1959 15.5197 21.0984 15.5002 21 15.5002C20.9016 15.5002 20.8041 15.5197 20.7131 15.5574C20.6222 15.5951 20.5396 15.6503 20.47 15.72L14.22 21.97Z" fill="#F0F5FF"/>
</svg>
