<svg width="18" height="19" viewBox="0 0 18 19" fill="none" xmlns="http://www.w3.org/2000/svg">
<path d="M12.7682 2.87C12.9978 3.00037 13.2697 3.03464 13.5245 2.96532C13.7792 2.896 13.9963 2.72873 14.1282 2.5C14.2373 2.30736 14.4074 2.15639 14.6116 2.07078C14.8158 1.98517 15.0426 1.96975 15.2565 2.02694C15.4704 2.08414 15.6593 2.21071 15.7935 2.38681C15.9278 2.56291 15.9997 2.77858 15.9982 3C15.9982 3.26522 15.8928 3.51957 15.7053 3.70711C15.5178 3.89464 15.2634 4 14.9982 4C14.733 4 14.4786 4.10536 14.2911 4.29289C14.1035 4.48043 13.9982 4.73478 13.9982 5C13.9982 5.26522 14.1035 5.51957 14.2911 5.70711C14.4786 5.89464 14.733 6 14.9982 6C15.5247 5.99966 16.0419 5.86075 16.4977 5.59723C16.9536 5.33371 17.332 4.95486 17.5951 4.49875C17.8581 4.04264 17.9965 3.52533 17.9963 2.9988C17.9961 2.47227 17.8573 1.95507 17.5939 1.49917C17.3304 1.04326 16.9517 0.664718 16.4956 0.401563C16.0396 0.138409 15.5223 -8.42941e-05 14.9958 3.84915e-08C14.4693 8.43711e-05 13.952 0.138743 13.4961 0.402044C13.0401 0.665344 12.6615 1.04401 12.3982 1.5C12.3321 1.61413 12.2892 1.74022 12.272 1.871C12.2548 2.00178 12.2637 2.13466 12.2981 2.262C12.3325 2.38934 12.3917 2.50862 12.4724 2.61297C12.5531 2.71732 12.6536 2.80467 12.7682 2.87ZM17.0682 10C16.8057 9.96593 16.5404 10.0373 16.3305 10.1985C16.1205 10.3597 15.983 10.5976 15.9482 10.86C15.7383 12.5552 14.9159 14.1151 13.6358 15.246C12.3557 16.3769 10.7063 17.0007 8.99819 17H3.40819L4.05819 16.35C4.24444 16.1626 4.34898 15.9092 4.34898 15.645C4.34898 15.3808 4.24444 15.1274 4.05819 14.94C3.08314 13.9611 2.41957 12.7156 2.15108 11.3603C1.88259 10.005 2.02117 8.60052 2.54939 7.32383C3.0776 6.04714 3.97181 4.95532 5.11938 4.18589C6.26695 3.41646 7.61655 3.00384 8.99819 3C9.2634 3 9.51776 2.89464 9.70529 2.70711C9.89283 2.51957 9.99819 2.26522 9.99819 2C9.99819 1.73478 9.89283 1.48043 9.70529 1.29289C9.51776 1.10536 9.2634 0.999999 8.99819 0.999999C7.30742 1.00705 5.65283 1.49024 4.22398 2.39419C2.79513 3.29815 1.64982 4.58632 0.919251 6.11112C0.188682 7.63592 -0.0975896 9.33568 0.093232 11.0157C0.284054 12.6956 0.94425 14.2879 1.99819 15.61L0.288186 17.29C0.149429 17.4306 0.0554325 17.6092 0.0180584 17.8032C-0.0193158 17.9972 0.0016069 18.1979 0.0781863 18.38C0.153206 18.5626 0.280604 18.7189 0.444325 18.8293C0.608045 18.9396 0.800761 18.999 0.998186 19H8.99819C11.1896 19.0003 13.3059 18.201 14.95 16.7521C16.5941 15.3031 17.653 13.3041 17.9282 11.13C17.9465 10.9993 17.9387 10.8662 17.9053 10.7385C17.8719 10.6107 17.8135 10.4909 17.7336 10.3858C17.6536 10.2808 17.5537 10.1926 17.4395 10.1264C17.3253 10.0602 17.1991 10.0172 17.0682 10V10ZM15.3782 7.07C15.1961 6.98945 14.9942 6.96508 14.7982 7L14.6182 7.06L14.4382 7.15L14.2882 7.28C14.1982 7.37215 14.1269 7.48081 14.0782 7.6C14.0191 7.72473 13.9916 7.86212 13.9982 8C13.9953 8.13337 14.0191 8.26597 14.0682 8.39C14.1199 8.51002 14.1946 8.61873 14.2882 8.71C14.3816 8.80268 14.4924 8.87601 14.6143 8.92577C14.7361 8.97553 14.8666 9.00076 14.9982 9C15.2634 9 15.5178 8.89464 15.7053 8.70711C15.8928 8.51957 15.9982 8.26522 15.9982 8C16.0016 7.86882 15.9742 7.73868 15.9182 7.62C15.8107 7.37971 15.6185 7.18745 15.3782 7.08V7.07Z" fill="white"/>
</svg>
