<svg width="17" height="17" viewBox="0 0 17 17" fill="none" xmlns="http://www.w3.org/2000/svg">
<path d="M5.66675 1.41669H2.12508C1.93722 1.41669 1.75705 1.49131 1.62421 1.62415C1.49138 1.75699 1.41675 1.93716 1.41675 2.12502V5.66669C1.41675 5.85455 1.49138 6.03472 1.62421 6.16755C1.75705 6.30039 1.93722 6.37502 2.12508 6.37502C2.31294 6.37502 2.49311 6.30039 2.62595 6.16755C2.75879 6.03472 2.83341 5.85455 2.83341 5.66669V2.83335H5.66675C5.85461 2.83335 6.03478 2.75873 6.16762 2.62589C6.30045 2.49305 6.37508 2.31288 6.37508 2.12502C6.37508 1.93716 6.30045 1.75699 6.16762 1.62415C6.03478 1.49131 5.85461 1.41669 5.66675 1.41669ZM5.66675 14.1667H2.83341V11.3334C2.83341 11.1455 2.75879 10.9653 2.62595 10.8325C2.49311 10.6996 2.31294 10.625 2.12508 10.625C1.93722 10.625 1.75705 10.6996 1.62421 10.8325C1.49138 10.9653 1.41675 11.1455 1.41675 11.3334V14.875C1.41675 15.0629 1.49138 15.2431 1.62421 15.3759C1.75705 15.5087 1.93722 15.5834 2.12508 15.5834H5.66675C5.85461 15.5834 6.03478 15.5087 6.16762 15.3759C6.30045 15.2431 6.37508 15.0629 6.37508 14.875C6.37508 14.6872 6.30045 14.507 6.16762 14.3742C6.03478 14.2413 5.85461 14.1667 5.66675 14.1667ZM14.8751 1.41669H11.3334C11.1456 1.41669 10.9654 1.49131 10.8325 1.62415C10.6997 1.75699 10.6251 1.93716 10.6251 2.12502C10.6251 2.31288 10.6997 2.49305 10.8325 2.62589C10.9654 2.75873 11.1456 2.83335 11.3334 2.83335H14.1667V5.66669C14.1667 5.85455 14.2414 6.03472 14.3742 6.16755C14.5071 6.30039 14.6872 6.37502 14.8751 6.37502C15.0629 6.37502 15.2431 6.30039 15.3759 6.16755C15.5088 6.03472 15.5834 5.85455 15.5834 5.66669V2.12502C15.5834 1.93716 15.5088 1.75699 15.3759 1.62415C15.2431 1.49131 15.0629 1.41669 14.8751 1.41669ZM14.8751 10.625C14.6872 10.625 14.5071 10.6996 14.3742 10.8325C14.2414 10.9653 14.1667 11.1455 14.1667 11.3334V14.1667H11.3334C11.1456 14.1667 10.9654 14.2413 10.8325 14.3742C10.6997 14.507 10.6251 14.6872 10.6251 14.875C10.6251 15.0629 10.6997 15.2431 10.8325 15.3759C10.9654 15.5087 11.1456 15.5834 11.3334 15.5834H14.8751C15.0629 15.5834 15.2431 15.5087 15.3759 15.3759C15.5088 15.2431 15.5834 15.0629 15.5834 14.875V11.3334C15.5834 11.1455 15.5088 10.9653 15.3759 10.8325C15.2431 10.6996 15.0629 10.625 14.8751 10.625Z" fill="#44D7B7"/>
</svg>
