<svg width="70" height="70" viewBox="0 0 70 70" fill="none" xmlns="http://www.w3.org/2000/svg">
<path d="M35 3L62.7128 19V51L48.1064 60.5L35.5 68H30.5L5.78711 54L7.28714 19L35 3Z" fill="#2D374B"/>
<path d="M62.0603 44.9319L62.0673 49.3417C62.0524 49.6429 61.9743 49.9376 61.8379 50.2065C61.7015 50.4755 61.5099 50.7127 61.2756 50.9026L56.4369 53.7051L43.0609 32.0723L48.2045 23.3511L62.0603 44.9319Z" fill="#28A0F0"/>
<path d="M45.0237 60.3204L35.3682 45.1665L41.263 35.1653L53.943 55.1514L45.0237 60.3204Z" fill="#28A0F0"/>
<path d="M4.00445 52.9802L10.8316 56.9141L33.5588 20.4668L29.7018 20.367C26.4154 20.3206 22.8751 21.1746 21.2504 23.8275L8.34437 43.831L4.00445 50.502V52.9802Z" fill="white"/>
<path d="M36.5106 20.5032L46.6759 20.4663L21.5498 63.0853L13.511 58.4566L36.5106 20.5032Z" fill="white"/>
<path d="M66.3487 20.4135C66.3021 19.3644 66.0011 18.3424 65.4716 17.4355C64.9421 16.5287 64.2 15.7642 63.3092 15.2081L38.0369 0.674859C37.1347 0.231512 36.1429 0.000976562 35.1377 0.000976562C34.1324 0.000976562 33.1406 0.231512 32.2384 0.674859C32.0274 0.781112 7.66149 14.9128 7.66149 14.9128C7.32295 15.0753 6.99916 15.2669 6.69374 15.4855C5.90256 16.0481 5.24917 16.7827 4.78261 17.634C4.31606 18.4854 4.04849 19.4314 4 20.401V50.5001L8.33992 43.8291L8.30649 20.6061C8.3268 20.2877 8.41746 19.9777 8.57195 19.6986C8.72644 19.4195 8.94091 19.1781 9.19992 18.9918C9.31465 18.9095 34.0966 4.56482 34.1754 4.52541C34.4721 4.381 34.7975 4.30521 35.1274 4.30366C35.4574 4.3021 35.7834 4.37483 36.0815 4.51644L61.027 18.8656C61.3175 19.0501 61.5594 19.3018 61.7322 19.5994C61.9049 19.897 62.0036 20.2319 62.0197 20.5756V49.3448C62.0137 49.6431 61.9441 49.9366 61.8155 50.2058C61.6868 50.475 61.5022 50.7136 61.274 50.9057L56.4352 53.7082L53.941 55.1548L45.0217 60.3238L35.9762 65.5661C35.4761 65.7425 34.929 65.7317 34.4363 65.5357L23.7347 59.3805L21.5487 63.0879L31.1664 68.625C31.4847 68.8056 31.768 68.9662 32.0005 69.0969C32.3606 69.2965 32.6061 69.4336 32.6924 69.4755C33.497 69.8281 34.3669 70.0071 35.2454 70.0008C36.0511 70.002 36.8498 69.8517 37.6 69.5578L63.8724 54.3432C64.6136 53.7666 65.2194 53.0345 65.6471 52.1985C66.0747 51.3625 66.3139 50.4429 66.3477 49.5044L66.3487 20.4135Z" fill="#96BEDC"/>
</svg>
