<svg width="220" height="220" viewBox="0 0 220 220" fill="none" xmlns="http://www.w3.org/2000/svg">
<g clip-path="url(#clip0_403_15)">
<path d="M110 220C170.751 220 220 170.751 220 110C220 49.2487 170.751 0 110 0C49.2487 0 0 49.2487 0 110C0 170.751 49.2487 220 110 220Z" fill="#2A5ADA"/>
<path d="M110 41.25L97.6319 48.5031L63.9375 68.3719L51.5625 75.625V144.375L63.9306 151.628L97.9413 171.497L110.309 178.75L122.677 171.497L156.069 151.628L168.438 144.375V75.625L156.069 68.3719L122.368 48.5031L110 41.25ZM76.2987 129.869V90.1312L110 70.2625L143.701 90.1312V129.869L110 149.738L76.2987 129.869Z" fill="white"/>
</g>
<defs>
<clipPath id="clip0_403_15">
<rect width="220" height="220" fill="white"/>
</clipPath>
</defs>
</svg>
