<svg width="220" height="220" viewBox="0 0 220 220" fill="none" xmlns="http://www.w3.org/2000/svg">
<g clip-path="url(#clip0_108_450)">
<path d="M110 220C170.751 220 220 170.751 220 110C220 49.2487 170.751 0 110 0C49.2487 0 0 49.2487 0 110C0 170.751 49.2487 220 110 220Z" fill="#A6E000"/>
<path fill-rule="evenodd" clip-rule="evenodd" d="M125.056 178.75C115.019 178.75 107.704 176.385 103.111 171.669C98.5256 166.939 96.2294 161.844 96.2294 156.386C96.2294 154.392 96.6281 152.708 97.4325 151.346C98.2169 149.995 99.3494 148.879 100.712 148.115C102.101 147.331 103.806 146.933 105.834 146.933C107.862 146.933 109.574 147.331 110.962 148.115C112.351 148.906 113.438 149.978 114.242 151.346C115.046 152.708 115.445 154.392 115.445 156.386C115.445 158.799 114.861 160.765 113.685 162.291C112.655 163.711 111.193 164.76 109.519 165.282C110.908 167.173 113.094 168.513 116.084 169.297C119.075 170.143 122.066 170.562 125.049 170.562C129.06 170.609 132.993 169.457 136.345 167.255C139.707 165.048 142.189 161.789 143.784 157.493C145.386 153.182 146.19 148.301 146.19 142.842C146.19 136.909 145.31 131.842 143.55 127.641C141.838 123.386 139.301 120.237 135.939 118.188C132.668 116.168 128.895 115.105 125.049 115.122C122.492 115.122 119.288 116.167 115.445 118.271L108.398 121.736V118.271L140.106 76.6906H96.2294V119.845C96.2294 123.42 97.0269 126.356 98.6356 128.666C100.231 130.976 102.692 132.131 105.992 132.131C108.556 132.131 111.011 131.292 113.362 129.607C115.72 127.917 117.777 125.842 119.446 123.468C119.611 123.055 119.89 122.698 120.251 122.437C120.541 122.191 120.908 122.055 121.289 122.052C121.88 122.052 122.567 122.341 123.372 122.911C124.101 123.706 124.502 124.748 124.493 125.826C124.401 126.569 124.268 127.306 124.094 128.033C122.279 132.021 119.763 135.066 116.566 137.17C113.435 139.247 109.756 140.343 105.999 140.319C96.4975 140.319 89.9319 138.483 86.3019 134.805C82.6719 131.134 80.8569 126.143 80.8569 119.845V76.6906H58.4375V68.6538H80.85V50.3938L75.735 45.3475V41.25H90.6263L96.2294 44.0825V68.6538L154.192 68.4956L159.967 74.1675L124.41 109.134C126.564 108.287 128.828 107.754 131.134 107.553C134.984 107.553 139.301 108.763 144.107 111.183C148.968 113.541 152.701 116.799 155.313 120.945C157.932 125.042 159.617 128.982 160.359 132.763C161.107 136.072 161.51 139.45 161.562 142.842C161.613 149.342 160.131 155.762 157.238 161.583C154.458 167.256 149.826 171.811 144.107 174.494C138.164 177.346 131.648 178.802 125.056 178.75Z" fill="white"/>
</g>
<defs>
<clipPath id="clip0_108_450">
<rect width="220" height="220" fill="white"/>
</clipPath>
</defs>
</svg>
