<svg width="70" height="70" viewBox="0 0 70 70" fill="none" xmlns="http://www.w3.org/2000/svg">
<path d="M59.6392 59.9399C56.3788 63.201 52.4967 65.7717 48.224 67.4989C43.9513 69.2261 39.3754 70.0744 34.7686 69.9935C30.1907 70.0836 25.6425 69.2378 21.4019 67.5078C17.1612 65.7777 13.3173 63.1997 10.1048 59.9313C6.81669 56.7242 4.22329 52.8731 2.48623 48.6179C0.749174 44.3627 -0.0943081 39.7947 0.00836463 35.1986C0.00836463 25.1422 3.37958 16.7627 10.122 10.0604C13.3365 6.79283 17.1823 4.21608 21.4244 2.48752C25.6665 0.758947 30.2158 -0.0851533 34.7945 0.00677779C39.4003 -0.0713788 43.9748 0.779138 48.2459 2.50775C52.517 4.23635 56.3975 6.80774 59.6565 10.069C66.5482 16.7771 69.9941 25.1594 69.9941 35.2159C70.0812 39.832 69.2051 44.4155 67.4221 48.6729C65.639 52.9303 62.9881 56.7679 59.6392 59.9399Z" fill="white"/>
<g clip-path="url(#clip0_102_12659)">
<path d="M20.803 38.854L22.3375 27.026L9.02734 17.5467L21.1886 21.7728L24.0607 17.2521L34.548 10.5762L57.6643 23.6417L58.8624 43.5768L48.5638 58.2587L40.4235 59.5383L44.6332 51.6333V44.023L41.5723 38.0795L38.4623 35.9664L33.6782 41.026V46.3801L29.9444 49.9664L25.2014 50.5557L23.1006 51.7764L19.6541 50.6483L18.2181 45.3447L20.803 41.6153V38.854Z" fill="white"/>
<path d="M42.0563 17.4456C39.5206 16.9068 36.747 17.0499 36.747 17.0499C36.747 17.0499 35.8362 21.3686 30.1904 22.5051C30.2315 22.5051 37.6497 25.1065 42.0563 17.4456Z" fill="#94A6C3"/>
<path d="M44.3535 56.6339C47.4143 54.1757 49.712 50.7914 50.7706 46.961C50.8198 46.8179 51.2465 46.5653 51.5337 46.3717C52.0097 46.0771 52.4938 45.8329 52.5841 45.4372C52.7728 44.3092 52.8713 43.1306 52.8713 41.952C52.8713 41.5142 52.4364 41.068 52.0097 40.6303C51.6732 40.3356 51.3368 39.9905 51.3368 39.7463C50.8608 35.2761 48.8504 31.1005 45.6418 28.0614L45.3054 28.4066C48.4154 31.4036 50.4259 35.4781 50.8608 39.7968C50.9101 40.1925 51.2875 40.5798 51.6732 40.9754C52.0097 41.2701 52.3954 41.7163 52.3954 41.9099C52.3954 43.038 52.2969 44.166 52.1081 45.2941C52.0589 45.4878 51.6322 45.6898 51.2958 45.8834C50.8198 46.1276 50.3849 46.3717 50.2946 46.7674C49.1458 50.943 46.5117 54.5798 43.0159 56.9369C43.6396 55.5647 45.6008 51.0945 46.6512 48.8299L46.4624 41.5647L40.3818 35.5286L36.9353 36.0169L33.1523 42.3056C33.1523 42.3056 34.9248 44.6122 32.4302 47.3146C29.993 49.9664 28.0728 50.5557 28.0728 50.5557L26.3003 49.5707C26.8255 48.8804 27.8841 47.8534 28.6965 47.163C30.0833 45.9845 31.4701 45.8834 31.4701 44.6122C31.5275 41.952 28.7457 42.6844 28.7457 42.6844L27.7363 43.6694L27.3096 47.3062L25.2089 50.0085L24.9709 49.958L21.5244 49.1751C21.5244 49.1751 23.6334 48.047 23.9698 46.7674C24.3062 45.5383 23.2969 41.4637 23.2477 41.2196C23.2969 41.2701 24.257 42.1035 24.6837 43.4757C25.4469 41.3122 26.4562 39.2496 26.7434 39.056C27.0306 38.8624 30.9039 36.7493 30.9039 36.7493L29.6155 40.2346L30.5756 39.6958L32.8733 33.9039C32.8733 33.9039 35.1217 32.7758 36.7958 32.7758C39.8074 32.7253 44.2632 28.9454 42.2528 22.1685C42.8272 22.4126 52.781 27.5226 54.5043 37.5407C55.7926 45.2436 51.5337 52.4583 44.3535 56.6339Z" fill="#94A6C3"/>
<path d="M32.9639 18.5231C34.0635 17.193 33.6368 15.2314 33.6368 15.2314L30.4282 20.0973C30.379 20.0973 31.5689 20.1479 32.9639 18.5231Z" fill="#1B314F"/>
<path d="M22.1889 45.0924L22.5745 43.1309C22.5745 43.1309 20.9908 45.9763 20.8513 46.372C20.7036 46.8182 20.9497 47.6011 21.5652 47.5506C22.1889 47.5001 22.952 46.5656 22.952 45.8837C22.952 44.9998 22.1889 45.0924 22.1889 45.0924Z" fill="#1B314F"/>
<path d="M50.6234 13.8592C50.6234 13.8592 53.0195 13.9602 55.5059 14.2548C49.9012 9.73409 44.592 8.41238 40.2838 8.41238C34.3509 8.41238 30.3299 10.9211 30.0837 11.0642L31.9547 8.01671C31.9547 8.01671 24.4873 7.27588 21.8531 15.3829C21.1802 13.6655 20.5648 11.1568 20.5648 11.1568C20.5648 11.1568 16.6834 14.6505 18.5051 20.4424C14.0492 18.7756 7.68958 16.4605 7.4434 16.4184C7.10695 16.3679 7.00848 16.5194 7.00848 16.5194C7.00848 16.5194 6.91001 16.6625 7.19722 16.9151C7.73061 17.3444 17.783 24.9632 19.9904 26.4364C19.5144 28.2043 19.5144 29.0377 19.9904 29.8712C20.6633 30.9992 20.7043 31.5885 20.614 32.422C20.5156 33.2554 19.6539 40.4785 19.4652 41.3624C19.2764 42.2464 17.266 45.3865 17.3562 46.3209C17.4547 47.2554 18.6938 51.2289 19.8016 51.6751C20.614 51.9698 22.6245 52.6096 23.9621 52.6096C24.438 52.6096 24.8729 52.5085 25.0617 52.3149C25.8741 51.5825 26.112 51.431 26.6865 51.431C26.7357 51.431 26.7849 51.431 26.826 51.431C27.0639 51.431 27.3512 51.4815 27.6876 51.4815C28.4508 51.4815 29.4601 51.33 30.174 50.6481C31.2244 49.5705 33.0461 48.0972 33.6205 47.4069C34.3427 46.4725 34.7201 45.2013 34.5314 43.9217C34.3837 42.7431 35.0074 41.7076 35.7295 40.6805C36.6403 39.4514 38.3144 37.2458 38.3144 37.2458C41.6214 39.7882 43.6811 43.6691 43.6811 47.9878C43.6811 55.6487 37.1737 61.8363 29.1319 61.8363C27.8845 61.8363 26.6947 61.6931 25.4966 61.3985C29.1811 62.7202 32.2912 63.1664 34.835 63.1664C40.2428 63.1664 43.1149 61.1544 43.1149 61.1544C43.1149 61.1544 42.1137 62.4845 40.4808 63.9998C40.53 63.9998 40.53 63.9998 40.53 63.9998C49.4827 62.7202 53.8401 55.1604 53.8401 55.1604C53.8401 55.1604 53.5037 57.6186 53.077 59.2854C64.9839 50.1009 62.9734 38.6096 62.9242 38.2223C63.0226 38.3654 64.2207 39.8387 64.8362 40.63C66.7564 20.3919 50.6234 13.8592 50.6234 13.8592ZM32.2912 46.1778C32.1024 46.422 31.29 47.1628 30.7156 47.7016C30.1412 48.2404 29.5175 48.7791 29.0416 49.2758C28.8529 49.4695 28.4672 49.5705 27.8927 49.5705C27.704 49.5705 27.5071 49.5705 27.3676 49.5705C27.2691 49.5705 27.1788 49.5705 27.0804 49.5705C26.9819 49.5705 26.9326 49.5705 26.8916 49.5705C26.7439 49.5705 26.6044 49.5705 26.4567 49.5705C27.1788 48.5855 29.2796 46.3294 30.0017 45.8411C30.8633 45.2518 31.2982 44.6625 30.7648 43.6354C30.2397 42.6 28.8528 42.8525 28.8528 42.8525C28.8528 42.8525 29.6652 42.5074 30.3874 42.5074C29.4765 42.2632 28.3277 42.5074 27.8025 43.0461C27.2281 43.5849 27.3265 45.5043 27.0886 46.725C26.8506 48.0046 26.0382 48.6445 24.7909 49.823C24.118 50.4628 23.642 50.6565 23.2564 50.6565C22.444 50.5134 21.4839 50.2608 20.811 50.0167C20.335 49.3769 19.6129 47.2638 19.4242 46.3799C19.5637 45.8916 20.1381 44.8561 20.4253 44.2668C20.9997 43.1387 21.3362 42.4989 21.4346 41.9096C21.6234 41.0762 22.247 35.9157 22.485 33.7605C23.1087 34.594 23.9703 35.9746 23.7733 36.8585C25.1602 34.8465 24.159 32.8766 23.6749 32.0937C23.2482 31.3107 22.6737 29.7365 23.1497 28.0696C23.6256 26.4027 25.3489 21.781 25.3489 21.781C25.3489 21.781 25.9233 22.8165 26.7357 22.6144C27.5481 22.4208 34.1047 12.3017 34.1047 12.3017C34.1047 12.3017 35.8772 16.2753 34.0062 19.1797C32.0942 22.0756 30.2233 22.6144 30.2233 22.6144C30.2233 22.6144 32.8574 23.1027 35.2946 21.2843C36.2957 23.692 37.2558 26.1923 37.305 26.5374C37.1573 26.8826 35.2453 31.597 35.0566 31.8916C34.9581 31.9926 34.2934 32.1863 33.8093 32.2873C32.9969 32.5314 32.5209 32.683 32.324 32.8261C31.9875 33.1207 30.453 37.4394 29.7391 39.5525C28.8775 39.7966 28.0158 40.2933 27.3922 41.2698C27.7286 41.0257 28.779 40.8742 29.5504 40.7816C30.2233 40.731 32.2748 41.8591 32.8081 43.9722C32.8081 44.0227 32.8081 44.0227 32.8081 44.0732C32.9148 44.8477 32.6768 45.5885 32.2912 46.1778ZM27.7943 46.7671C28.2292 46.1273 28.18 45.0497 28.2292 44.7046C28.2784 44.3594 28.3687 43.7196 28.7544 43.627C29.1401 43.526 30.0509 43.6775 30.0509 44.3594C30.0509 44.9992 29.378 45.1423 28.9021 45.5885C28.5574 45.9253 27.8845 46.6661 27.7943 46.7671ZM46.8896 37.3805C47.3656 34.8802 47.4148 32.7166 47.2753 30.9487C49.1381 33.4995 50.2869 36.5976 50.6234 39.7882C50.6726 40.1838 51.0501 40.5711 51.4358 40.9668C51.7722 41.2614 52.1579 41.6571 52.1579 41.9012C52.1579 43.0293 52.0594 44.1574 51.8707 45.2939C51.8214 45.437 51.3947 45.6896 51.0583 45.8832C50.5823 46.1273 50.1474 46.3715 50.0572 46.7671C49.0068 50.547 46.7501 53.8892 43.7385 56.2464C48.1862 51.4815 50.3362 43.6186 46.8896 37.3805ZM43.878 56.6841C46.9881 54.2259 49.3843 50.7912 50.4346 46.9102C50.4839 46.7671 50.9106 46.5146 51.1978 46.3209C51.6737 46.0768 52.1579 45.7822 52.2482 45.3865C52.4369 44.2584 52.5354 43.0798 52.5354 41.9012C52.5354 41.4635 52.1004 41.0173 51.6737 40.5795C51.4358 40.2849 51.0501 39.9397 51.0501 39.6956C50.6644 36.1093 49.2776 32.725 47.1276 29.9217C46.1675 24.0287 42.3435 22.2103 42.245 22.1598C42.3435 22.3113 44.8299 25.9902 43.1067 30.3089C41.3342 34.6781 36.788 33.9962 36.4024 34.0383C36.0167 34.0383 34.5396 35.9998 32.6686 39.6366C32.4307 39.5356 31.4213 39.2915 30.2725 39.4935C31.1341 37.0353 32.4307 33.5501 32.6686 33.2554C32.7671 33.1544 33.481 32.9608 33.9652 32.8176C34.8761 32.5735 35.3028 32.422 35.4505 32.2284C35.5489 32.0768 36.0249 30.9487 36.5008 29.7701C36.9358 29.7701 38.0354 29.6691 38.1256 29.6186C38.2241 29.5176 39.135 27.1183 39.135 26.8237C39.135 26.5795 37.264 21.8147 36.5501 19.9963C36.8865 19.6006 37.223 19.1123 37.5512 18.5735C47.3656 19.6595 55.03 28.2043 55.03 38.5591C55.03 46.5146 50.4839 53.443 43.878 56.6841Z" fill="#1B314F"/>
<path d="M31.1423 30.1659C32.0532 29.0884 31.5772 27.0764 29.895 26.7312C30.3299 25.7041 30.9454 23.6416 30.9454 23.6416C30.9454 23.6416 26.0628 31.4961 25.6361 31.6476C25.2012 31.7991 24.7745 30.0733 24.7745 30.0733C23.8636 33.6596 26.309 34.1479 26.5962 33.0198C27.9338 32.6662 30.2314 31.193 31.1423 30.1659Z" fill="#1B314F"/>
<path d="M26.9736 32.0767L29.46 27.7075C29.46 27.7075 30.8961 28.4483 30.174 29.6269C29.2713 30.9991 26.9736 32.0767 26.9736 32.0767Z" fill="#FFD923"/>
<path d="M57.754 52.3149C57.0319 53.2998 56.2195 54.3269 55.2676 55.3119C61.4385 43.1303 55.5548 31.9841 55.3168 31.5464C55.7517 31.9926 56.1784 32.4808 56.5641 32.9186C61.299 38.3149 61.8734 46.4219 57.754 52.3149Z" fill="#D82122"/>
<path d="M63.4981 36.6479C61.34 30.7044 58.2791 25.6449 51.5338 21.0821C45.0264 16.6624 38.0349 17.0075 37.6493 17.058C37.6 17.058 37.5508 17.058 37.5508 17.058C37.7888 16.957 38.0267 16.9065 38.2647 16.8644C39.75 16.3761 41.662 15.9805 43.5822 15.7363C48.6617 14.9871 53.7822 16.755 57.278 20.5433C57.3272 20.5938 57.3272 20.5938 57.3765 20.6443C61.3482 24.963 63.4079 30.3593 63.4981 36.6479Z" fill="#D82122"/>
<path d="M50 12.3353C42.869 10.963 38.2736 11.6449 34.9666 12.9246C34.8681 12.5289 34.5317 11.746 34.2444 11.1062C33.2515 12.3353 32.1929 13.8085 31.5283 14.743C29.7065 16.0226 28.9434 17.2517 28.9434 17.2517C29.9937 13.5644 33.0628 10.8199 36.7965 10.1296C37.8469 9.93598 38.9957 9.83496 40.243 9.83496C43.5419 9.88547 46.8407 10.7189 50 12.3353Z" fill="#D82122"/>
<path d="M23.6257 21.7642C18.0292 21.5706 19.8919 14.8863 19.9904 14.499C19.9904 14.5495 20.3679 19.7522 23.6257 21.7642Z" fill="#D82122"/>
<path d="M29.1317 9.73389C24.8235 12.3857 25.6851 18.7164 25.6851 18.7164C21.5657 12.2931 28.7952 9.88542 29.1317 9.73389Z" fill="#D82122"/>
<path d="M22.05 23.5323C22.3372 23.7764 22.6244 24.2226 22.288 24.8624C22.0992 25.2075 21.812 25.157 21.3771 24.9634C20.8027 24.6688 17.3562 22.6062 14.2461 20.4932C17.7911 21.7728 21.3771 23.145 21.9515 23.4396C21.9515 23.4396 22.0008 23.4902 22.05 23.5323Z" fill="white"/>
</g>
<defs>
<clipPath id="clip0_102_12659">
<rect width="58" height="56" fill="white" transform="translate(7 8)"/>
</clipPath>
</defs>
</svg>
