<svg width="1000" height="1000" viewBox="0 0 1000 1000" fill="none" xmlns="http://www.w3.org/2000/svg">
<path fill-rule="evenodd" clip-rule="evenodd" d="M500 0C776.1 0 1000 223.9 1000 500C1000 776.1 776.1 1000 500 1000C223.9 1000 0 776.1 0 500C0 223.9 223.9 0 500 0Z" fill="#064267"/>
<path d="M507.5 709C347.6 709 218 662.8 218 600.9C218 568.6 253.3 539.5 309.8 519C353.9 547.3 427.9 561.8 511.8 561.8C593.7 561.8 666.1 544.1 710.6 517C763.9 537.3 797 565.6 797 596.8C797 658.8 667.4 709 507.5 709Z" fill="white"/>
<path d="M509.2 547.9C388 547.9 289.7 509.9 289.7 463C289.7 437 320 413.7 367.5 398.2C401.4 415.9 452.2 427.2 509.2 427.2C566.2 427.2 617 415.9 650.9 398.2C698.5 413.8 728.7 437 728.7 463C728.8 509.9 630.5 547.9 509.2 547.9Z" fill="white"/>
<path d="M508.4 413.1C414.7 413.1 338.7 381.7 338.7 343.1C338.7 304.5 414.7 273.1 508.4 273.1C602.1 273.1 678.1 304.5 678.1 343.1C678.1 381.7 602.1 413.1 508.4 413.1Z" fill="white"/>
</svg>
