<svg xmlns="http://www.w3.org/2000/svg" viewBox="0 0 16 16"><defs><style>.cls-1{fill:#24252b;}.cls-2{fill:#5d636a;}.cls-3{fill:#b0b6bc;fill-rule:evenodd;}</style></defs><g id="图层_2" data-name="图层 2"><g id="图层_1-2" data-name="图层 1"><circle class="cls-1" cx="8" cy="8" r="8"/><path class="cls-2" d="M8,16v0A10.14,10.14,0,0,1,6,15.72l.24-1A8.78,8.78,0,0,0,8,15Zm1-.07-.13-1a6.76,6.76,0,0,0,1.76-.48l.39.93A8,8,0,0,1,9.06,15.93ZM5,15.4a7.57,7.57,0,0,1-1.83-1l.6-.8a6.82,6.82,0,0,0,1.59.88Zm7-.48-.5-.86A6.79,6.79,0,0,0,13,12.94l.71.71A8.15,8.15,0,0,1,12,14.92ZM2.34,13.71A7.63,7.63,0,0,1,1.08,12L2,11.55A6.76,6.76,0,0,0,3.05,13Zm12-.85-.79-.6a7.12,7.12,0,0,0,.91-1.58l.92.38A7.53,7.53,0,0,1,14.35,12.86ZM.63,11.09a8.49,8.49,0,0,1-.52-2L1.1,9a7.17,7.17,0,0,0,.46,1.78Zm15.1-1-1-.26A6.87,6.87,0,0,0,15,8l.68,0L16,8A8,8,0,0,1,15.73,10.07ZM0,8V8A8.53,8.53,0,0,1,.29,6l1,.23A7.76,7.76,0,0,0,1,8ZM14.93,7a6.67,6.67,0,0,0-.49-1.76l.92-.39a7.8,7.8,0,0,1,.56,2ZM1.53,5.34.6,5a8.11,8.11,0,0,1,1-1.83l.81.59A7.1,7.1,0,0,0,1.53,5.34ZM14,4.45A7.14,7.14,0,0,0,12.91,3l.7-.71a8.14,8.14,0,0,1,1.28,1.64ZM3,3.05l-.71-.7A7.62,7.62,0,0,1,4,1.08L4.44,2A6.47,6.47,0,0,0,3,3.05Zm9.21-.64a6.87,6.87,0,0,0-1.58-.9L11,.58a8.37,8.37,0,0,1,1.82,1Zm-7-.85L4.89.63A8.74,8.74,0,0,1,6.9.1l.14,1A7.76,7.76,0,0,0,5.26,1.56Zm4.5-.34A7.38,7.38,0,0,0,8,1L7.92,0H8a8.47,8.47,0,0,1,2,.25Z"/><path class="cls-3" d="M11,6.87a.5.5,0,0,1,.19.68L9.17,11a.52.52,0,0,1-.69.19.51.51,0,0,1-.18-.69l2-3.46A.49.49,0,0,1,11,6.87Zm-.73-2.74a.51.51,0,0,1,.18.69l-4,6.92a.5.5,0,0,1-.68.19.51.51,0,0,1-.18-.69l4-6.92A.51.51,0,0,1,10.25,4.13Zm-2.73.74a.49.49,0,0,1,.18.68L5.7,9A.51.51,0,0,1,5,9.2a.52.52,0,0,1-.19-.69l2-3.46A.51.51,0,0,1,7.52,4.87Z"/></g></g></svg>