<svg width="220" height="220" viewBox="0 0 220 220" fill="none" xmlns="http://www.w3.org/2000/svg">
<g clip-path="url(#clip0_108_458)">
<path d="M110 220C170.751 220 220 170.751 220 110C220 49.2487 170.751 0 110 0C49.2487 0 0 49.2487 0 110C0 170.751 49.2487 220 110 220Z" fill="#ECB244"/>
<path d="M103.785 136.441H147.077V159.472H120.436C120.876 166.059 121.103 172.171 121.543 178.75H99.1239V159.706H72.4764C72.4764 152.192 71.5896 144.671 72.9233 137.617C73.5902 133.856 77.5846 130.563 80.0252 127.277C88.4694 116.725 96.9808 106.226 105.559 95.7825C108.893 91.7812 112.221 88.0206 115.995 83.5588H74.4702V60.5275H99.1239V41.25H120.656V60.0531H147.524C147.524 67.8081 148.411 75.3294 147.077 82.3831C146.41 86.1437 142.416 89.4369 139.755 92.7231C131.311 103.275 122.8 113.774 114.221 124.218C110.872 128.401 107.392 132.477 103.785 136.441Z" fill="white"/>
</g>
<defs>
<clipPath id="clip0_108_458">
<rect width="220" height="220" fill="white"/>
</clipPath>
</defs>
</svg>
